<svg version="1.1" viewBox="0.0 0.0 960.0 720.0" fill="none" stroke="none" stroke-linecap="square" stroke-miterlimit="10" xmlns:xlink="http://www.w3.org/1999/xlink" xmlns="http://www.w3.org/2000/svg"><clipPath id="p.0"><path d="m0 0l960.0 0l0 720.0l-960.0 0l0 -720.0z" clip-rule="nonzero"/></clipPath><g clip-path="url(#p.0)"><path fill="#000000" fill-opacity="0.0" d="m0 0l960.0 0l0 720.0l-960.0 0z" fill-rule="evenodd"/><path fill="#cfe2f3" d="m39.070866 40.929134l826.96063 0l0 632.5669l-826.96063 0z" fill-rule="evenodd"/><path stroke="#000000" stroke-width="1.0" stroke-linejoin="round" stroke-linecap="butt" d="m39.070866 40.929134l826.96063 0l0 632.5669l-826.96063 0z" fill-rule="evenodd"/><path fill="#000000" d="m51.945866 67.00538l2.390625 0q0.390625 0 0.640625 -0.03125q0.265625 -0.046875 0.453125 -0.140625q0.1875 -0.109375 0.34375 -0.265625q0.15625 -0.171875 0.28125 -0.4375q0.140625 -0.28125 0.265625 -0.6875q0.125 -0.421875 0.296875 -1.25l0.921875 0l-0.171875 3.65625l-8.1875 0l0 -0.453125q0.5625 -0.140625 0.75 -0.3125q0.1875 -0.1875 0.25 -0.515625q0.0625 -0.328125 0.0625 -1.0l0 -7.874996q0 -0.625 -0.046875 -0.90625q-0.046875 -0.296875 -0.15625 -0.453125q-0.09375 -0.15625 -0.28125 -0.25q-0.171875 -0.109375 -0.578125 -0.21875l0 -0.453125l3.828125 0l0 0.453125q-0.40625 0.109375 -0.578125 0.203125q-0.15625 0.078125 -0.265625 0.21875q-0.109375 0.140625 -0.171875 0.453125q-0.046875 0.296875 -0.046875 0.953125l0 9.312496zm12.292591 -0.453125l-0.140625 -0.046875q-0.7968788 0.8125 -1.5000038 1.15625q-0.6875 0.328125 -1.46875 0.328125q-0.703125 0 -1.234375 -0.265625q-0.515625 -0.265625 -0.796875 -0.75q-0.28125 -0.484375 -0.28125 -1.125q0 -1.328125 1.3125 -2.0468712q1.3125 -0.734375 3.9531288 -0.859375l0 -0.59375q0 -0.9375 -0.18750381 -1.484375q-0.1875 -0.546875 -0.578125 -0.796875q-0.390625 -0.265625 -1.046875 -0.265625q-0.703125 0 -1.140625 0.375q-0.4375 0.375 -0.65625 1.125l-1.1875 0l0 -1.1875q0.875 -0.453125 1.453125 -0.671875q0.59375 -0.21875 1.171875 -0.328125q0.578125 -0.125 1.1875 -0.125q0.890625 0 1.4375038 0.28125q0.546875 0.28125 0.8125 0.875q0.28125 0.59375 0.28125 1.796875l0 3.1718712q0 0.671875 0 0.953125q0.015625 0.265625 0.0625 0.515625q0.046875 0.234375 0.140625 0.375q0.09375 0.140625 0.265625 0.234375q0.1875 0.09375 0.578125 0.203125l0 0.453125l-2.484375 0l0.046875 -1.296875zm-0.15625 -2.8593712q-1.8593788 0.015625 -2.7812538 0.4999962q-0.90625 0.46875 -0.90625 1.421875q0 0.515625 0.203125 0.828125q0.203125 0.296875 0.515625 0.40625q0.328125 0.109375 0.765625 0.109375q0.625 0 1.125 -0.296875q0.5 -0.296875 0.78125 -0.75q0.2968788 -0.46875 0.2968788 -0.9375l0 -1.2812462zm7.843872 4.906246q-0.5 1.125 -0.984375 1.828125q-0.46875 0.703125 -1.03125 1.046875q-0.5625 0.359375 -1.359375 0.359375q-0.5 0 -1.125 -0.109375l0 -1.8125l0.8125 0q0.109375 0.375 0.265625 0.515625q0.171875 0.15625 0.484375 0.15625q0.265625 0 0.484375 -0.109375q0.21875 -0.109375 0.4375 -0.359375q0.234375 -0.25 0.546875 -0.78125q0.328125 -0.53125 0.71875 -1.34375l-2.546875 -6.859371q-0.25 -0.65625 -0.40625 -0.921875q-0.140625 -0.265625 -0.328125 -0.40625q-0.171875 -0.140625 -0.515625 -0.21875l0 -0.4375l3.703125 0l0 0.4375q-0.421875 0.109375 -0.609375 0.203125q-0.171875 0.09375 -0.25 0.25q-0.078125 0.140625 -0.078125 0.375q0 0.25 0.046875 0.515625q0.0625 0.265625 0.203125 0.625l1.609375 4.562496l1.828125 -4.374996q0.15625 -0.375 0.234375 -0.671875q0.09375 -0.3125 0.09375 -0.5625q0 -0.40625 -0.21875 -0.59375q-0.203125 -0.203125 -0.734375 -0.328125l0 -0.4375l3.40625 0l0 0.4375q-0.359375 0.078125 -0.546875 0.234375q-0.1875 0.140625 -0.390625 0.46875q-0.1875 0.328125 -0.453125 0.90625l-3.296875 7.406246zm9.510376 -0.609375q-1.890625 0 -2.890625 -1.109375q-1.0 -1.125 -1.0 -3.2968712q0 -1.515625 0.515625 -2.546875q0.53125 -1.046875 1.4375 -1.546875q0.921875 -0.5 2.078125 -0.5q1.953125 0 2.953125 1.140625q1.015625 1.125 1.015625 3.25q0 1.5156212 -0.515625 2.5468712q-0.5 1.03125 -1.421875 1.546875q-0.90625 0.515625 -2.171875 0.515625zm-2.171875 -4.609371q0 1.8749962 0.59375 2.8906212q0.609375 1.0 1.71875 1.0q0.609375 0 1.03125 -0.296875q0.4375 -0.296875 0.703125 -0.796875q0.265625 -0.5 0.375 -1.15625q0.125 -0.65625 0.125 -1.3749962q0 -1.34375 -0.296875 -2.21875q-0.296875 -0.890625 -0.8125 -1.296875q-0.5 -0.421875 -1.15625 -0.421875q-1.09375 0 -1.6875 0.953125q-0.59375 0.953125 -0.59375 2.71875zm7.9020233 -4.234375l2.59375 0l0 4.625q0 1.0781212 0.078125 1.6406212q0.078125 0.546875 0.234375 0.828125q0.171875 0.28125 0.46875 0.46875q0.3125 0.1875 0.828125 0.1875q0.359375 0 0.671875 -0.125q0.3125 -0.140625 0.703125 -0.484375q0.40625 -0.34375 0.5625 -0.671875q0.171875 -0.34375 0.171875 -0.796875l0 -3.4062462q0 -0.515625 -0.03125 -0.78125q-0.015625 -0.265625 -0.078125 -0.421875q-0.0625 -0.171875 -0.15625 -0.265625q-0.09375 -0.09375 -0.25 -0.171875q-0.15625 -0.09375 -0.515625 -0.1875l0 -0.4375l2.59375 0l0 6.218746q0 0.703125 0.03125 1.015625q0.03125 0.296875 0.125 0.484375q0.09375 0.1875 0.28125 0.296875q0.1875 0.109375 0.6875 0.21875l0 0.46875l-2.09375 0.09375l-0.5625 0l0.0625 -1.5l-0.140625 -0.03125q-0.75 0.8125 -1.4375 1.203125q-0.6875 0.375 -1.375 0.375q-0.84375 0 -1.375 -0.328125q-0.53125 -0.328125 -0.796875 -0.96875q-0.265625 -0.65625 -0.265625 -1.84375l0 -3.4374962q0 -0.765625 -0.0625 -1.046875q-0.0625 -0.296875 -0.234375 -0.453125q-0.15625 -0.171875 -0.71875 -0.328125l0 -0.4375zm9.974716 0.453125q0.453125 -0.078125 0.734375 -0.25q0.28125 -0.1875 0.4375 -0.46875q0.15625 -0.296875 0.25 -0.71875q0.09375 -0.4375 0.1875 -1.265625l1.296875 0l0 2.25l2.9375 0l0 0.921875l-2.9375 0l0 4.046871q0 0.890625 0.0625 1.421875q0.078125 0.515625 0.28125 0.8125q0.203125 0.28125 0.453125 0.421875q0.265625 0.125 0.65625 0.125q0.375 0 0.6875 -0.140625q0.328125 -0.15625 0.625 -0.453125l0.421875 0.5q-0.65625 0.625 -1.234375 0.90625q-0.578125 0.28125 -1.1875 0.28125q-1.1875 0 -1.765625 -0.6875q-0.5625 -0.703125 -0.5625 -2.1875l0 -5.046871l-1.34375 0l0 -0.46875zm10.671265 -4.1875l9.859375 0l0 3.171875l-0.890625 0q-0.203125 -0.78125 -0.40625 -1.234375q-0.1875 -0.453125 -0.40625 -0.6875q-0.21875 -0.25 -0.46875 -0.34375q-0.25 -0.109375 -0.75 -0.109375l-1.15625 0l0 9.328121q0 0.546875 0.0625 0.875q0.0625 0.3125 0.171875 0.5q0.125 0.1875 0.328125 0.296875q0.21875 0.09375 0.671875 0.1875l0 0.453125l-4.171875 0l0 -0.453125q0.28125 -0.0625 0.484375 -0.125q0.21875 -0.078125 0.34375 -0.171875q0.140625 -0.109375 0.21875 -0.265625q0.09375 -0.171875 0.140625 -0.453125q0.046875 -0.296875 0.046875 -0.84375l0 -9.328121l-1.140625 0q-0.4375 0 -0.71875 0.09375q-0.265625 0.078125 -0.515625 0.34375q-0.234375 0.25 -0.4375 0.734375q-0.1875 0.46875 -0.359375 1.203125l-0.90625 0l0 -3.171875zm18.62143 10.890621q-0.578125 0.609375 -1.0625 0.953125q-0.484375 0.34375 -1.078125 0.546875q-0.578125 0.1875 -1.28125 0.1875q-1.875 0 -2.828125 -1.125q-0.953125 -1.125 -0.953125 -3.3124962q0 -1.359375 0.484375 -2.390625q0.484375 -1.046875 1.375 -1.609375q0.90625 -0.5625 2.09375 -0.5625q0.921875 0 1.5625 0.296875q0.640625 0.28125 1.03125 0.796875q0.390625 0.5 0.59375 1.265625q0.21875 0.765625 0.25 2.015625l-5.734375 0l0 0.15625q0 1.0781212 0.234375 1.8124962q0.25 0.734375 0.796875 1.15625q0.546875 0.40625 1.4375 0.40625q0.75 0 1.34375 -0.28125q0.59375 -0.28125 1.1875 -0.90625l0.546875 0.59375zm-1.53125 -3.7031212q-0.046875 -0.984375 -0.25 -1.609375q-0.1875 -0.625 -0.578125 -0.953125q-0.375 -0.328125 -0.984375 -0.328125q-0.9375 0 -1.5 0.75q-0.5625 0.75 -0.65625 2.140625l3.96875 0zm5.81913 -2.0625l0.125 0.046875q0.546875 -0.546875 0.890625 -0.828125q0.359375 -0.28125 0.6875 -0.4375q0.328125 -0.171875 0.609375 -0.25q0.296875 -0.078125 0.59375 -0.078125q0.90625 0 1.484375 0.421875q0.578125 0.421875 0.796875 1.28125q0.671875 -0.6875 1.09375 -1.015625q0.4375 -0.328125 0.875 -0.5q0.4375 -0.1875 0.953125 -0.1875q0.609375 0 1.046875 0.1875q0.4375 0.171875 0.75 0.546875q0.3125 0.359375 0.453125 0.921875q0.140625 0.546875 0.140625 1.484375l0 3.4374962q0 0.703125 0.03125 0.96875q0.046875 0.25 0.125 0.40625q0.09375 0.140625 0.265625 0.25q0.1875 0.09375 0.59375 0.203125l0 0.453125l-3.578125 0l0 -0.453125q0.359375 -0.109375 0.5 -0.1875q0.15625 -0.078125 0.265625 -0.21875q0.109375 -0.15625 0.15625 -0.453125q0.0625 -0.3125 0.0625 -0.921875l0 -2.3906212q0 -0.78125 -0.046875 -1.28125q-0.03125 -0.5 -0.125 -0.796875q-0.078125 -0.3125 -0.203125 -0.484375q-0.125 -0.171875 -0.28125 -0.296875q-0.15625 -0.125 -0.359375 -0.203125q-0.203125 -0.078125 -0.5625 -0.078125q-0.359375 0 -0.671875 0.15625q-0.3125 0.140625 -0.6875 0.484375q-0.359375 0.34375 -0.53125 0.703125q-0.15625 0.34375 -0.15625 0.8125l0 3.3281212q0 0.703125 0.046875 0.96875q0.046875 0.25 0.125 0.40625q0.09375 0.140625 0.265625 0.25q0.171875 0.09375 0.578125 0.203125l0 0.453125l-3.578125 0l0 -0.453125q0.359375 -0.109375 0.5 -0.1875q0.15625 -0.078125 0.265625 -0.21875q0.109375 -0.15625 0.15625 -0.453125q0.0625 -0.3125 0.0625 -0.921875l0 -2.3906212q0 -0.8125 -0.046875 -1.3125q-0.03125 -0.515625 -0.140625 -0.828125q-0.09375 -0.3125 -0.25 -0.5q-0.140625 -0.1875 -0.296875 -0.28125q-0.15625 -0.109375 -0.375 -0.15625q-0.203125 -0.0625 -0.453125 -0.0625q-0.375 0 -0.703125 0.171875q-0.328125 0.171875 -0.671875 0.5q-0.34375 0.3125 -0.515625 0.65625q-0.171875 0.34375 -0.171875 0.75l0 3.4062462q0 0.515625 0.015625 0.796875q0.03125 0.265625 0.09375 0.421875q0.0625 0.15625 0.15625 0.265625q0.09375 0.09375 0.25 0.1875q0.171875 0.078125 0.515625 0.15625l0 0.453125l-3.578125 0l0 -0.453125q0.34375 -0.109375 0.5 -0.1875q0.15625 -0.078125 0.265625 -0.21875q0.109375 -0.15625 0.15625 -0.453125q0.0625 -0.296875 0.0625 -0.9375l0 -3.9687462q0 -0.59375 -0.03125 -0.9375q-0.015625 -0.359375 -0.125 -0.5625q-0.109375 -0.21875 -0.328125 -0.328125q-0.21875 -0.109375 -0.640625 -0.171875l0 -0.484375l2.140625 -0.09375l0.546875 0l-0.09375 1.484375zm15.538208 7.046871l0 1.921875q0 0.578125 0.03125 0.875q0.046875 0.296875 0.140625 0.453125q0.109375 0.171875 0.296875 0.28125q0.203125 0.109375 0.640625 0.203125l0 0.453125l-3.71875 0l0 -0.453125q0.328125 -0.09375 0.53125 -0.1875q0.21875 -0.09375 0.328125 -0.28125q0.109375 -0.1875 0.140625 -0.515625q0.03125 -0.3125 0.03125 -0.828125l0 -7.828121q0 -0.65625 -0.015625 -0.921875q-0.015625 -0.28125 -0.078125 -0.46875q-0.046875 -0.1875 -0.15625 -0.296875q-0.09375 -0.125 -0.28125 -0.203125q-0.171875 -0.078125 -0.578125 -0.15625l0 -0.484375l2.140625 -0.09375l0.546875 0l-0.109375 1.484375l0.125 0.046875q0.5625 -0.578125 0.890625 -0.828125q0.328125 -0.265625 0.671875 -0.4375q0.359375 -0.171875 0.6875 -0.25q0.328125 -0.078125 0.6875 -0.078125q1.5 0 2.296875 1.125q0.8125 1.125 0.8125 3.296875q0 1.4999962 -0.453125 2.5312462q-0.453125 1.015625 -1.328125 1.53125q-0.859375 0.515625 -2.0625 0.515625q-0.671875 0 -1.21875 -0.109375q-0.546875 -0.109375 -1.0 -0.296875zm0 -3.015625q0 0.875 0.109375 1.359375q0.109375 0.46875 0.375 0.765625q0.28125 0.296875 0.65625 0.4375q0.375 0.140625 1.0 0.140625q1.109375 0 1.65625 -0.90625q0.5625 -0.921875 0.5625 -2.7031212q0 -3.578125 -2.09375 -3.578125q-0.5 0 -0.875 0.171875q-0.375 0.15625 -0.734375 0.515625q-0.359375 0.34375 -0.515625 0.6875q-0.140625 0.328125 -0.140625 0.703125l0 2.4062462zm10.328842 1.0q0 0.78125 0.078125 1.09375q0.078125 0.296875 0.28125 0.46875q0.203125 0.15625 0.671875 0.265625l0 0.453125l-3.625 0l0 -0.453125q0.453125 -0.109375 0.625 -0.234375q0.1875 -0.125 0.265625 -0.296875q0.078125 -0.1875 0.109375 -0.484375q0.03125 -0.3125 0.03125 -0.8125l0 -7.624996q0 -0.875 -0.015625 -1.21875q-0.015625 -0.34375 -0.078125 -0.578125q-0.046875 -0.25 -0.15625 -0.375q-0.109375 -0.140625 -0.296875 -0.21875q-0.171875 -0.09375 -0.625 -0.171875l0 -0.46875l2.1875 -0.09375l0.546875 0l0 10.749996zm7.9086304 0.984375l-0.140625 -0.046875q-0.796875 0.8125 -1.5 1.15625q-0.6875 0.328125 -1.46875 0.328125q-0.703125 0 -1.234375 -0.265625q-0.515625 -0.265625 -0.796875 -0.75q-0.28125 -0.484375 -0.28125 -1.125q0 -1.328125 1.3125 -2.0468712q1.3125 -0.734375 3.953125 -0.859375l0 -0.59375q0 -0.9375 -0.1875 -1.484375q-0.1875 -0.546875 -0.578125 -0.796875q-0.390625 -0.265625 -1.046875 -0.265625q-0.703125 0 -1.140625 0.375q-0.4375 0.375 -0.65625 1.125l-1.1875 0l0 -1.1875q0.875 -0.453125 1.453125 -0.671875q0.59375 -0.21875 1.171875 -0.328125q0.578125 -0.125 1.1875 -0.125q0.890625 0 1.4375 0.28125q0.546875 0.28125 0.8125 0.875q0.28125 0.59375 0.28125 1.796875l0 3.1718712q0 0.671875 0 0.953125q0.015625 0.265625 0.0625 0.515625q0.046875 0.234375 0.140625 0.375q0.09375 0.140625 0.265625 0.234375q0.1875 0.09375 0.578125 0.203125l0 0.453125l-2.484375 0l0.046875 -1.296875zm-0.15625 -2.8593712q-1.859375 0.015625 -2.78125 0.4999962q-0.90625 0.46875 -0.90625 1.421875q0 0.515625 0.203125 0.828125q0.203125 0.296875 0.515625 0.40625q0.328125 0.109375 0.765625 0.109375q0.625 0 1.125 -0.296875q0.5 -0.296875 0.78125 -0.75q0.296875 -0.46875 0.296875 -0.9375l0 -1.2812462zm3.453247 -4.09375q0.453125 -0.078125 0.734375 -0.25q0.28125 -0.1875 0.4375 -0.46875q0.15625 -0.296875 0.25 -0.71875q0.09375 -0.4375 0.1875 -1.265625l1.296875 0l0 2.25l2.9375 0l0 0.921875l-2.9375 0l0 4.046871q0 0.890625 0.0625 1.421875q0.078125 0.515625 0.28125 0.8125q0.203125 0.28125 0.453125 0.421875q0.265625 0.125 0.65625 0.125q0.375 0 0.6875 -0.140625q0.328125 -0.15625 0.625 -0.453125l0.421875 0.5q-0.65625 0.625 -1.234375 0.90625q-0.578125 0.28125 -1.1875 0.28125q-1.1875 0 -1.765625 -0.6875q-0.5625 -0.703125 -0.5625 -2.1875l0 -5.046871l-1.34375 0l0 -0.46875zm14.125381 6.703121q-0.578125 0.609375 -1.0625 0.953125q-0.484375 0.34375 -1.078125 0.546875q-0.578125 0.1875 -1.28125 0.1875q-1.875 0 -2.828125 -1.125q-0.953125 -1.125 -0.953125 -3.3124962q0 -1.359375 0.484375 -2.390625q0.484375 -1.046875 1.375 -1.609375q0.90625 -0.5625 2.09375 -0.5625q0.921875 0 1.5625 0.296875q0.640625 0.28125 1.03125 0.796875q0.390625 0.5 0.59375 1.265625q0.21875 0.765625 0.25 2.015625l-5.734375 0l0 0.15625q0 1.0781212 0.234375 1.8124962q0.25 0.734375 0.796875 1.15625q0.546875 0.40625 1.4375 0.40625q0.75 0 1.34375 -0.28125q0.59375 -0.28125 1.1875 -0.90625l0.546875 0.59375zm-1.53125 -3.7031212q-0.046875 -0.984375 -0.25 -1.609375q-0.1875 -0.625 -0.578125 -0.953125q-0.375 -0.328125 -0.984375 -0.328125q-0.9375 0 -1.5 0.75q-0.5625 0.75 -0.65625 2.140625l3.96875 0zm11.786896 1.15625l-4.21875 0l0 -1.40625l4.21875 0l0 1.40625zm8.459091 3.8281212l0 1.921875q0 0.578125 0.03125 0.875q0.046875 0.296875 0.140625 0.453125q0.109375 0.171875 0.296875 0.28125q0.203125 0.109375 0.640625 0.203125l0 0.453125l-3.71875 0l0 -0.453125q0.328125 -0.09375 0.53125 -0.1875q0.21875 -0.09375 0.328125 -0.28125q0.109375 -0.1875 0.140625 -0.515625q0.03125 -0.3125 0.03125 -0.828125l0 -7.828121q0 -0.65625 -0.015625 -0.921875q-0.015625 -0.28125 -0.078125 -0.46875q-0.046875 -0.1875 -0.15625 -0.296875q-0.09375 -0.125 -0.28125 -0.203125q-0.171875 -0.078125 -0.578125 -0.15625l0 -0.484375l2.140625 -0.09375l0.546875 0l-0.109375 1.484375l0.125 0.046875q0.5625 -0.578125 0.890625 -0.828125q0.328125 -0.265625 0.671875 -0.4375q0.359375 -0.171875 0.6875 -0.25q0.328125 -0.078125 0.6875 -0.078125q1.5 0 2.296875 1.125q0.8125 1.125 0.8125 3.296875q0 1.4999962 -0.453125 2.5312462q-0.453125 1.015625 -1.328125 1.53125q-0.859375 0.515625 -2.0625 0.515625q-0.671875 0 -1.21875 -0.109375q-0.546875 -0.109375 -1.0 -0.296875zm0 -3.015625q0 0.875 0.109375 1.359375q0.109375 0.46875 0.375 0.765625q0.28125 0.296875 0.65625 0.4375q0.375 0.140625 1.0 0.140625q1.109375 0 1.65625 -0.90625q0.5625 -0.921875 0.5625 -2.7031212q0 -3.578125 -2.09375 -3.578125q-0.5 0 -0.875 0.171875q-0.375 0.15625 -0.734375 0.515625q-0.359375 0.34375 -0.515625 0.6875q-0.140625 0.328125 -0.140625 0.703125l0 2.4062462zm10.500717 -8.999996l0 1.765625l-1.671875 0l0 -1.765625l1.671875 0zm-2.59375 11.828121q0.34375 -0.109375 0.5 -0.1875q0.15625 -0.078125 0.25 -0.21875q0.109375 -0.15625 0.171875 -0.453125q0.0625 -0.296875 0.0625 -0.9375l0 -3.9687462q0 -0.59375 -0.03125 -0.9375q-0.015625 -0.359375 -0.125 -0.5625q-0.109375 -0.21875 -0.328125 -0.328125q-0.21875 -0.109375 -0.640625 -0.171875l0 -0.484375l2.125 -0.09375l0.5625 0l0 6.515621q0 0.78125 0.0625 1.09375q0.078125 0.296875 0.28125 0.46875q0.203125 0.15625 0.671875 0.265625l0 0.453125l-3.5625 0l0 -0.453125zm9.027054 -4.796871l1.1875 -1.515625q0.1875 -0.234375 0.296875 -0.46875q0.125 -0.234375 0.125 -0.484375q0 -0.203125 -0.15625 -0.34375q-0.140625 -0.140625 -0.46875 -0.203125l0 -0.4375l2.96875 0l0 0.4375q-0.34375 0.109375 -0.703125 0.40625q-0.359375 0.28125 -0.875 0.921875l-1.890625 2.3125l2.078125 2.7968712q0.453125 0.609375 0.796875 0.9375q0.359375 0.3125 0.71875 0.4375l0 0.453125l-3.671875 0l0 -0.453125q0.765625 -0.078125 0.765625 -0.5625q0 -0.1875 -0.0625 -0.359375q-0.0625 -0.171875 -0.234375 -0.40625l-1.328125 -1.828125l-1.40625 1.8125q-0.15625 0.203125 -0.25 0.375q-0.078125 0.171875 -0.078125 0.375q0 0.25 0.171875 0.40625q0.171875 0.15625 0.53125 0.1875l0 0.453125l-3.046875 0l0 -0.453125q0.3125 -0.109375 0.546875 -0.265625q0.25 -0.171875 0.5 -0.421875q0.25 -0.265625 0.65625 -0.765625l1.890625 -2.3437462l-1.9375 -2.671875q-0.40625 -0.53125 -0.640625 -0.78125q-0.234375 -0.25 -0.4375 -0.375q-0.203125 -0.125 -0.40625 -0.1875l0 -0.4375l3.578125 0l0 0.4375q-0.71875 0.109375 -0.71875 0.5625q0 0.21875 0.09375 0.4375q0.09375 0.203125 0.296875 0.453125l1.109375 1.5625zm12.440277 3.7031212q-0.578125 0.609375 -1.0625 0.953125q-0.484375 0.34375 -1.078125 0.546875q-0.578125 0.1875 -1.28125 0.1875q-1.875 0 -2.828125 -1.125q-0.953125 -1.125 -0.953125 -3.3124962q0 -1.359375 0.484375 -2.390625q0.484375 -1.046875 1.375 -1.609375q0.90625 -0.5625 2.09375 -0.5625q0.921875 0 1.5625 0.296875q0.640625 0.28125 1.03125 0.796875q0.390625 0.5 0.59375 1.265625q0.21875 0.765625 0.25 2.015625l-5.734375 0l0 0.15625q0 1.0781212 0.234375 1.8124962q0.25 0.734375 0.796875 1.15625q0.546875 0.40625 1.4375 0.40625q0.75 0 1.34375 -0.28125q0.59375 -0.28125 1.1875 -0.90625l0.546875 0.59375zm-1.53125 -3.7031212q-0.046875 -0.984375 -0.25 -1.609375q-0.1875 -0.625 -0.578125 -0.953125q-0.375 -0.328125 -0.984375 -0.328125q-0.9375 0 -1.5 0.75q-0.5625 0.75 -0.65625 2.140625l3.96875 0zm5.7878876 2.9687462q0 0.78125 0.078125 1.09375q0.078125 0.296875 0.28125 0.46875q0.203125 0.15625 0.671875 0.265625l0 0.453125l-3.625 0l0 -0.453125q0.453125 -0.109375 0.625 -0.234375q0.1875 -0.125 0.265625 -0.296875q0.078125 -0.1875 0.109375 -0.484375q0.03125 -0.3125 0.03125 -0.8125l0 -7.624996q0 -0.875 -0.015625 -1.21875q-0.015625 -0.34375 -0.078125 -0.578125q-0.046875 -0.25 -0.15625 -0.375q-0.109375 -0.140625 -0.296875 -0.21875q-0.171875 -0.09375 -0.625 -0.171875l0 -0.46875l2.1875 -0.09375l0.546875 0l0 10.749996zm9.220139 2.015625l0 1.921875q0 0.578125 0.03125 0.875q0.046875 0.296875 0.140625 0.453125q0.109375 0.171875 0.296875 0.28125q0.203125 0.109375 0.640625 0.203125l0 0.453125l-3.71875 0l0 -0.453125q0.328125 -0.09375 0.53125 -0.1875q0.21875 -0.09375 0.328125 -0.28125q0.109375 -0.1875 0.140625 -0.515625q0.03125 -0.3125 0.03125 -0.828125l0 -7.828121q0 -0.65625 -0.015625 -0.921875q-0.015625 -0.28125 -0.078125 -0.46875q-0.046875 -0.1875 -0.15625 -0.296875q-0.09375 -0.125 -0.28125 -0.203125q-0.171875 -0.078125 -0.578125 -0.15625l0 -0.484375l2.140625 -0.09375l0.546875 0l-0.109375 1.484375l0.125 0.046875q0.5625 -0.578125 0.890625 -0.828125q0.328125 -0.265625 0.671875 -0.4375q0.359375 -0.171875 0.6875 -0.25q0.328125 -0.078125 0.6875 -0.078125q1.5 0 2.296875 1.125q0.8125 1.125 0.8125 3.296875q0 1.4999962 -0.453125 2.5312462q-0.453125 1.015625 -1.328125 1.53125q-0.859375 0.515625 -2.0625 0.515625q-0.671875 0 -1.21875 -0.109375q-0.546875 -0.109375 -1.0 -0.296875zm0 -3.015625q0 0.875 0.109375 1.359375q0.109375 0.46875 0.375 0.765625q0.28125 0.296875 0.65625 0.4375q0.375 0.140625 1.0 0.140625q1.109375 0 1.65625 -0.90625q0.5625 -0.921875 0.5625 -2.7031212q0 -3.578125 -2.09375 -3.578125q-0.5 0 -0.875 0.171875q-0.375 0.15625 -0.734375 0.515625q-0.359375 0.34375 -0.515625 0.6875q-0.140625 0.328125 -0.140625 0.703125l0 2.4062462zm15.172592 1.734375q-0.578125 0.609375 -1.0625 0.953125q-0.484375 0.34375 -1.078125 0.546875q-0.578125 0.1875 -1.28125 0.1875q-1.875 0 -2.828125 -1.125q-0.953125 -1.125 -0.953125 -3.3124962q0 -1.359375 0.484375 -2.390625q0.484375 -1.046875 1.375 -1.609375q0.90625 -0.5625 2.09375 -0.5625q0.921875 0 1.5625 0.296875q0.640625 0.28125 1.03125 0.796875q0.390625 0.5 0.59375 1.265625q0.21875 0.765625 0.25 2.015625l-5.734375 0l0 0.15625q0 1.0781212 0.234375 1.8124962q0.25 0.734375 0.796875 1.15625q0.546875 0.40625 1.4375 0.40625q0.75 0 1.34375 -0.28125q0.59375 -0.28125 1.1875 -0.90625l0.546875 0.59375zm-1.53125 -3.7031212q-0.046875 -0.984375 -0.25 -1.609375q-0.1875 -0.625 -0.578125 -0.953125q-0.375 -0.328125 -0.984375 -0.328125q-0.9375 0 -1.5 0.75q-0.5625 0.75 -0.65625 2.140625l3.96875 0zm5.819153 -1.953125l0.125 0.03125q0.5 -0.609375 0.921875 -0.953125q0.4375 -0.359375 0.9375 -0.546875q0.5 -0.1875 1.125 -0.1875q0.53125 0 0.953125 0.046875l0 2.09375l-1.03125 0q-0.21875 -0.484375 -0.46875 -0.703125q-0.234375 -0.234375 -0.671875 -0.234375q-0.328125 0 -0.65625 0.203125q-0.3125 0.1875 -0.625 0.546875q-0.296875 0.359375 -0.40625 0.6875q-0.109375 0.3125 -0.109375 0.75l0 3.1874962q0 0.828125 0.09375 1.15625q0.109375 0.3125 0.328125 0.453125q0.234375 0.140625 0.703125 0.21875l0 0.453125l-3.671875 0l0 -0.453125q0.34375 -0.109375 0.5 -0.1875q0.15625 -0.078125 0.265625 -0.21875q0.109375 -0.15625 0.15625 -0.453125q0.0625 -0.296875 0.0625 -0.9375l0 -3.9687462q0 -0.59375 -0.03125 -0.9375q-0.015625 -0.359375 -0.125 -0.5625q-0.109375 -0.21875 -0.328125 -0.328125q-0.21875 -0.109375 -0.640625 -0.171875l0 -0.484375l2.140625 -0.09375l0.546875 0l-0.09375 1.59375zm9.934479 -0.578125l-2.171875 0l0 5.499996q0 0.609375 0.046875 0.921875q0.0625 0.3125 0.171875 0.46875q0.125 0.15625 0.3125 0.265625q0.1875 0.09375 0.59375 0.171875l0 0.453125l-3.71875 0l0 -0.453125q0.390625 -0.109375 0.5625 -0.203125q0.1875 -0.09375 0.28125 -0.25q0.09375 -0.15625 0.140625 -0.453125q0.046875 -0.296875 0.046875 -0.921875l0 -5.499996l-1.109375 0l0 -0.46875q0.34375 -0.0625 0.453125 -0.09375q0.125 -0.03125 0.21875 -0.09375q0.109375 -0.0625 0.1875 -0.171875q0.078125 -0.125 0.140625 -0.359375q0.0625 -0.234375 0.09375 -0.65625q0.078125 -0.984375 0.359375 -1.59375q0.28125 -0.625 0.8125 -1.0625q0.53125 -0.4375 1.140625 -0.609375q0.609375 -0.1875 1.421875 -0.1875q0.71875 0 1.21875 0.09375l0 1.65625l-0.90625 0q-0.171875 -0.546875 -0.40625 -0.765625q-0.21875 -0.21875 -0.640625 -0.21875q-0.296875 0 -0.515625 0.078125q-0.203125 0.078125 -0.375 0.25q-0.171875 0.171875 -0.296875 0.46875q-0.125 0.296875 -0.1875 0.734375q-0.046875 0.421875 -0.046875 1.109375l0 0.96875l2.171875 0l0 0.921875zm8.241638 6.234371q-0.578125 0.609375 -1.0625 0.953125q-0.484375 0.34375 -1.078125 0.546875q-0.578125 0.1875 -1.28125 0.1875q-1.875 0 -2.828125 -1.125q-0.953125 -1.125 -0.953125 -3.3124962q0 -1.359375 0.484375 -2.390625q0.484375 -1.046875 1.375 -1.609375q0.90625 -0.5625 2.09375 -0.5625q0.921875 0 1.5625 0.296875q0.640625 0.28125 1.03125 0.796875q0.390625 0.5 0.59375 1.265625q0.21875 0.765625 0.25 2.015625l-5.734375 0l0 0.15625q0 1.0781212 0.234375 1.8124962q0.25 0.734375 0.796875 1.15625q0.546875 0.40625 1.4375 0.40625q0.75 0 1.34375 -0.28125q0.59375 -0.28125 1.1875 -0.90625l0.546875 0.59375zm-1.53125 -3.7031212q-0.046875 -0.984375 -0.25 -1.609375q-0.1875 -0.625 -0.578125 -0.953125q-0.375 -0.328125 -0.984375 -0.328125q-0.9375 0 -1.5 0.75q-0.5625 0.75 -0.65625 2.140625l3.96875 0zm10.147278 -3.25l0 1.90625l-1.15625 0q-0.15625 -0.59375 -0.390625 -0.9375q-0.21875 -0.34375 -0.53125 -0.46875q-0.296875 -0.140625 -0.734375 -0.140625q-0.640625 0 -1.140625 0.40625q-0.484375 0.40625 -0.78125 1.25q-0.28125 0.84375 -0.28125 2.046875q0 0.7812462 0.109375 1.4218712q0.109375 0.640625 0.375 1.09375q0.265625 0.453125 0.703125 0.71875q0.4375 0.25 1.078125 0.25q0.640625 0 1.171875 -0.25q0.546875 -0.25 1.125 -0.859375l0.53125 0.59375q-0.46875 0.515625 -0.828125 0.796875q-0.359375 0.265625 -0.765625 0.453125q-0.40625 0.1875 -0.796875 0.265625q-0.390625 0.09375 -0.859375 0.09375q-1.71875 0 -2.640625 -1.140625q-0.90625 -1.140625 -0.90625 -3.2968712q0 -1.34375 0.515625 -2.390625q0.515625 -1.046875 1.421875 -1.609375q0.921875 -0.5625 2.125 -0.5625q0.75 0 1.375 0.09375q0.640625 0.078125 1.28125 0.265625zm0.8977356 0.25q0.453125 -0.078125 0.734375 -0.25q0.28125 -0.1875 0.4375 -0.46875q0.15625 -0.296875 0.25 -0.71875q0.09375 -0.4375 0.1875 -1.265625l1.296875 0l0 2.25l2.9375 0l0 0.921875l-2.9375 0l0 4.046871q0 0.890625 0.0625 1.421875q0.078125 0.515625 0.28125 0.8125q0.203125 0.28125 0.453125 0.421875q0.265625 0.125 0.65625 0.125q0.375 0 0.6875 -0.140625q0.328125 -0.15625 0.625 -0.453125l0.421875 0.5q-0.65625 0.625 -1.234375 0.90625q-0.578125 0.28125 -1.1875 0.28125q-1.1875 0 -1.765625 -0.6875q-0.5625 -0.703125 -0.5625 -2.1875l0 -5.046871l-1.34375 0l0 -0.46875zm13.421265 1.046875l0.125 0.03125q0.5 -0.609375 0.921875 -0.953125q0.4375 -0.359375 0.9375 -0.546875q0.5 -0.1875 1.125 -0.1875q0.53125 0 0.953125 0.046875l0 2.09375l-1.03125 0q-0.21875 -0.484375 -0.46875 -0.703125q-0.234375 -0.234375 -0.671875 -0.234375q-0.328125 0 -0.65625 0.203125q-0.3125 0.1875 -0.625 0.546875q-0.296875 0.359375 -0.40625 0.6875q-0.109375 0.3125 -0.109375 0.75l0 3.1874962q0 0.828125 0.09375 1.15625q0.109375 0.3125 0.328125 0.453125q0.234375 0.140625 0.703125 0.21875l0 0.453125l-3.671875 0l0 -0.453125q0.34375 -0.109375 0.5 -0.1875q0.15625 -0.078125 0.265625 -0.21875q0.109375 -0.15625 0.15625 -0.453125q0.0625 -0.296875 0.0625 -0.9375l0 -3.9687462q0 -0.59375 -0.03125 -0.9375q-0.015625 -0.359375 -0.125 -0.5625q-0.109375 -0.21875 -0.328125 -0.328125q-0.21875 -0.109375 -0.640625 -0.171875l0 -0.484375l2.140625 -0.09375l0.546875 0l-0.09375 1.59375zm12.528229 5.656246q-0.578125 0.609375 -1.0625 0.953125q-0.484375 0.34375 -1.078125 0.546875q-0.578125 0.1875 -1.28125 0.1875q-1.875 0 -2.828125 -1.125q-0.953125 -1.125 -0.953125 -3.3124962q0 -1.359375 0.484375 -2.390625q0.484375 -1.046875 1.375 -1.609375q0.90625 -0.5625 2.09375 -0.5625q0.921875 0 1.5625 0.296875q0.640625 0.28125 1.03125 0.796875q0.390625 0.5 0.59375 1.265625q0.21875 0.765625 0.25 2.015625l-5.734375 0l0 0.15625q0 1.0781212 0.234375 1.8124962q0.25 0.734375 0.796875 1.15625q0.546875 0.40625 1.4375 0.40625q0.75 0 1.34375 -0.28125q0.59375 -0.28125 1.1875 -0.90625l0.546875 0.59375zm-1.53125 -3.7031212q-0.046875 -0.984375 -0.25 -1.609375q-0.1875 -0.625 -0.578125 -0.953125q-0.375 -0.328125 -0.984375 -0.328125q-0.9375 0 -1.5 0.75q-0.5625 0.75 -0.65625 2.140625l3.96875 0zm12.225403 5.249996l-3.578125 0l0 -0.453125q0.34375 -0.109375 0.5 -0.1875q0.15625 -0.078125 0.265625 -0.21875q0.109375 -0.15625 0.15625 -0.453125q0.0625 -0.3125 0.0625 -0.921875l0 -2.3906212q0 -0.640625 -0.03125 -1.15625q-0.03125 -0.515625 -0.125 -0.84375q-0.078125 -0.34375 -0.203125 -0.53125q-0.125 -0.1875 -0.296875 -0.3125q-0.171875 -0.140625 -0.390625 -0.21875q-0.21875 -0.078125 -0.578125 -0.078125q-0.34375 0 -0.671875 0.140625q-0.3125 0.140625 -0.703125 0.5q-0.375 0.34375 -0.546875 0.6875q-0.171875 0.328125 -0.171875 0.765625l0 3.3906212q0 0.78125 0.0625 1.09375q0.078125 0.296875 0.28125 0.46875q0.203125 0.15625 0.671875 0.265625l0 0.453125l-3.5625 0l0 -0.453125q0.34375 -0.109375 0.5 -0.1875q0.15625 -0.078125 0.25 -0.21875q0.109375 -0.15625 0.171875 -0.453125q0.0625 -0.296875 0.0625 -0.9375l0 -3.9687462q0 -0.59375 -0.03125 -0.9375q-0.015625 -0.359375 -0.125 -0.5625q-0.109375 -0.21875 -0.328125 -0.328125q-0.21875 -0.109375 -0.640625 -0.171875l0 -0.484375l2.140625 -0.09375l0.546875 0l-0.09375 1.484375l0.125 0.046875q0.671875 -0.6875 1.078125 -0.96875q0.421875 -0.296875 0.84375 -0.453125q0.4375 -0.171875 0.90625 -0.171875q0.484375 0 0.875 0.125q0.390625 0.109375 0.6875 0.34375q0.296875 0.234375 0.484375 0.59375q0.1875 0.34375 0.28125 0.84375q0.109375 0.484375 0.109375 1.234375l0 3.4374962q0 0.625 0.03125 0.921875q0.03125 0.28125 0.125 0.4375q0.09375 0.140625 0.265625 0.25q0.171875 0.109375 0.59375 0.21875l0 0.453125zm7.6934204 -9.906246q0 -0.875 -0.015625 -1.21875q-0.015625 -0.34375 -0.078125 -0.578125q-0.046875 -0.25 -0.15625 -0.375q-0.109375 -0.140625 -0.28125 -0.21875q-0.171875 -0.09375 -0.640625 -0.171875l0 -0.46875l2.203125 -0.09375l0.53125 0l0 10.546871q0 0.703125 0.03125 1.015625q0.03125 0.296875 0.125 0.484375q0.09375 0.1875 0.28125 0.296875q0.203125 0.109375 0.6875 0.21875l0 0.46875l-2.15625 0.09375l-0.546875 0l0.109375 -1.5l-0.125 -0.03125q-0.578125 0.609375 -1.0 0.921875q-0.421875 0.296875 -0.90625 0.484375q-0.46875 0.171875 -1.015625 0.171875q-1.5 0 -2.3125 -1.125q-0.8125 -1.140625 -0.8125 -3.2812462q0 -1.484375 0.53125 -2.53125q0.53125 -1.046875 1.421875 -1.546875q0.90625 -0.515625 2.015625 -0.515625q0.609375 0 1.09375 0.09375q0.5 0.09375 1.015625 0.3125l0 -1.453125zm0 4.5q0 -0.703125 -0.0625 -1.125q-0.0625 -0.4375 -0.21875 -0.71875q-0.140625 -0.296875 -0.40625 -0.5q-0.25 -0.203125 -0.5625 -0.296875q-0.296875 -0.09375 -0.71875 -0.09375q-1.171875 0 -1.78125 0.9375q-0.609375 0.9375 -0.609375 2.6875q0 1.7499962 0.5 2.6562462q0.5 0.90625 1.515625 0.90625q0.40625 0 0.671875 -0.0625q0.265625 -0.0625 0.515625 -0.21875q0.25 -0.15625 0.515625 -0.40625q0.265625 -0.265625 0.390625 -0.484375q0.125 -0.21875 0.1875 -0.5q0.0625 -0.296875 0.0625 -0.734375l0 -2.0468712zm11.473389 3.8593712q-0.578125 0.609375 -1.0625 0.953125q-0.484375 0.34375 -1.078125 0.546875q-0.578125 0.1875 -1.28125 0.1875q-1.875 0 -2.828125 -1.125q-0.953125 -1.125 -0.953125 -3.3124962q0 -1.359375 0.484375 -2.390625q0.484375 -1.046875 1.375 -1.609375q0.90625 -0.5625 2.09375 -0.5625q0.921875 0 1.5625 0.296875q0.640625 0.28125 1.03125 0.796875q0.390625 0.5 0.59375 1.265625q0.21875 0.765625 0.25 2.015625l-5.734375 0l0 0.15625q0 1.0781212 0.234375 1.8124962q0.25 0.734375 0.796875 1.15625q0.546875 0.40625 1.4375 0.40625q0.75 0 1.34375 -0.28125q0.59375 -0.28125 1.1875 -0.90625l0.546875 0.59375zm-1.53125 -3.7031212q-0.046875 -0.984375 -0.25 -1.609375q-0.1875 -0.625 -0.578125 -0.953125q-0.375 -0.328125 -0.984375 -0.328125q-0.9375 0 -1.5 0.75q-0.5625 0.75 -0.65625 2.140625l3.96875 0zm5.819153 -1.953125l0.125 0.03125q0.5 -0.609375 0.921875 -0.953125q0.4375 -0.359375 0.9375 -0.546875q0.5 -0.1875 1.125 -0.1875q0.53125 0 0.953125 0.046875l0 2.09375l-1.03125 0q-0.21875 -0.484375 -0.46875 -0.703125q-0.234375 -0.234375 -0.671875 -0.234375q-0.328125 0 -0.65625 0.203125q-0.3125 0.1875 -0.625 0.546875q-0.296875 0.359375 -0.40625 0.6875q-0.109375 0.3125 -0.109375 0.75l0 3.1874962q0 0.828125 0.09375 1.15625q0.109375 0.3125 0.328125 0.453125q0.234375 0.140625 0.703125 0.21875l0 0.453125l-3.671875 0l0 -0.453125q0.34375 -0.109375 0.5 -0.1875q0.15625 -0.078125 0.265625 -0.21875q0.109375 -0.15625 0.15625 -0.453125q0.0625 -0.296875 0.0625 -0.9375l0 -3.9687462q0 -0.59375 -0.03125 -0.9375q-0.015625 -0.359375 -0.125 -0.5625q-0.109375 -0.21875 -0.328125 -0.328125q-0.21875 -0.109375 -0.640625 -0.171875l0 -0.484375l2.140625 -0.09375l0.546875 0l-0.09375 1.59375zm7.8563843 -5.078125l0 1.765625l-1.671875 0l0 -1.765625l1.671875 0zm-2.59375 11.828121q0.34375 -0.109375 0.5 -0.1875q0.15625 -0.078125 0.25 -0.21875q0.109375 -0.15625 0.171875 -0.453125q0.0625 -0.296875 0.0625 -0.9375l0 -3.9687462q0 -0.59375 -0.03125 -0.9375q-0.015625 -0.359375 -0.125 -0.5625q-0.109375 -0.21875 -0.328125 -0.328125q-0.21875 -0.109375 -0.640625 -0.171875l0 -0.484375l2.125 -0.09375l0.5625 0l0 6.515621q0 0.78125 0.0625 1.09375q0.078125 0.296875 0.28125 0.46875q0.203125 0.15625 0.671875 0.265625l0 0.453125l-3.5625 0l0 -0.453125zm14.042664 0.453125l-3.578125 0l0 -0.453125q0.34375 -0.109375 0.5 -0.1875q0.15625 -0.078125 0.265625 -0.21875q0.109375 -0.15625 0.15625 -0.453125q0.0625 -0.3125 0.0625 -0.921875l0 -2.3906212q0 -0.640625 -0.03125 -1.15625q-0.03125 -0.515625 -0.125 -0.84375q-0.078125 -0.34375 -0.203125 -0.53125q-0.125 -0.1875 -0.296875 -0.3125q-0.171875 -0.140625 -0.390625 -0.21875q-0.21875 -0.078125 -0.578125 -0.078125q-0.34375 0 -0.671875 0.140625q-0.3125 0.140625 -0.703125 0.5q-0.375 0.34375 -0.546875 0.6875q-0.171875 0.328125 -0.171875 0.765625l0 3.3906212q0 0.78125 0.0625 1.09375q0.078125 0.296875 0.28125 0.46875q0.203125 0.15625 0.671875 0.265625l0 0.453125l-3.5625 0l0 -0.453125q0.34375 -0.109375 0.5 -0.1875q0.15625 -0.078125 0.25 -0.21875q0.109375 -0.15625 0.171875 -0.453125q0.0625 -0.296875 0.0625 -0.9375l0 -3.9687462q0 -0.59375 -0.03125 -0.9375q-0.015625 -0.359375 -0.125 -0.5625q-0.109375 -0.21875 -0.328125 -0.328125q-0.21875 -0.109375 -0.640625 -0.171875l0 -0.484375l2.140625 -0.09375l0.546875 0l-0.09375 1.484375l0.125 0.046875q0.671875 -0.6875 1.078125 -0.96875q0.421875 -0.296875 0.84375 -0.453125q0.4375 -0.171875 0.90625 -0.171875q0.484375 0 0.875 0.125q0.390625 0.109375 0.6875 0.34375q0.296875 0.234375 0.484375 0.59375q0.1875 0.34375 0.28125 0.84375q0.109375 0.484375 0.109375 1.234375l0 3.4374962q0 0.625 0.03125 0.921875q0.03125 0.28125 0.125 0.4375q0.09375 0.140625 0.265625 0.25q0.171875 0.109375 0.59375 0.21875l0 0.453125zm9.72467 -7.781246l-1.6875 -0.078125l-0.09375 0.109375q0.28125 0.28125 0.4375 0.765625q0.171875 0.484375 0.171875 1.046875q0 1.484375 -0.921875 2.2968712q-0.90625 0.8125 -2.59375 0.8125q-0.75 0 -1.296875 -0.203125q-0.6875 0.53125 -0.6875 1.046875q0 0.328125 0.125 0.515625q0.140625 0.171875 0.4375 0.25q0.3125 0.0625 0.921875 0.0625l2.1875 0q0.96875 0 1.578125 0.296875q0.609375 0.296875 0.859375 0.8125q0.265625 0.5 0.265625 1.171875q0 0.859375 -0.5 1.53125q-0.484375 0.671875 -1.40625 1.046875q-0.921875 0.375 -2.171875 0.375q-0.921875 0 -1.6875 -0.109375q-0.75 -0.109375 -1.296875 -0.375q-0.53125 -0.265625 -0.828125 -0.6875q-0.296875 -0.421875 -0.296875 -1.0625q0 -0.5625 0.375 -1.03125q0.390625 -0.46875 1.09375 -0.828125q-0.4375 -0.171875 -0.6875 -0.5q-0.234375 -0.34375 -0.234375 -0.8125q0 -0.515625 0.28125 -0.9375q0.296875 -0.4375 1.03125 -1.0q-0.65625 -0.375 -1.0 -1.0312462q-0.328125 -0.65625 -0.328125 -1.5q0 -0.78125 0.25 -1.359375q0.265625 -0.578125 0.71875 -0.953125q0.46875 -0.375 1.09375 -0.5625q0.625 -0.1875 1.359375 -0.1875q0.65625 0 1.296875 0.15625l3.234375 0l0 0.921875zm-6.328125 1.84375q0 1.140625 0.453125 1.765625q0.46875 0.6093712 1.34375 0.6093712q0.46875 0 0.796875 -0.171875q0.328125 -0.18749619 0.53125 -0.4843712q0.203125 -0.3125 0.296875 -0.71875q0.109375 -0.40625 0.109375 -0.859375q0 -0.796875 -0.234375 -1.328125q-0.234375 -0.546875 -0.625 -0.796875q-0.390625 -0.25 -0.890625 -0.25q-0.875 0 -1.328125 0.578125q-0.453125 0.578125 -0.453125 1.65625zm0.21875 6.078121q-0.453125 0.34375 -0.6875 0.734375q-0.234375 0.390625 -0.234375 0.890625q0 0.8125 0.640625 1.203125q0.65625 0.390625 2.0 0.390625q0.828125 0 1.40625 -0.21875q0.59375 -0.21875 0.890625 -0.640625q0.3125 -0.40625 0.3125 -0.953125q0 -0.25 -0.0625 -0.5q-0.0625 -0.234375 -0.234375 -0.4375q-0.171875 -0.1875 -0.5 -0.296875q-0.328125 -0.109375 -0.859375 -0.109375l-1.359375 0q-0.734375 0 -1.3125 -0.0625zm15.217834 0q-1.890625 0 -2.890625 -1.109375q-1.0 -1.125 -1.0 -3.2968712q0 -1.515625 0.515625 -2.546875q0.53125 -1.046875 1.4375 -1.546875q0.921875 -0.5 2.078125 -0.5q1.953125 0 2.953125 1.140625q1.015625 1.125 1.015625 3.25q0 1.5156212 -0.515625 2.5468712q-0.5 1.03125 -1.421875 1.546875q-0.90625 0.515625 -2.171875 0.515625zm-2.171875 -4.609371q0 1.8749962 0.59375 2.8906212q0.609375 1.0 1.71875 1.0q0.609375 0 1.03125 -0.296875q0.4375 -0.296875 0.703125 -0.796875q0.265625 -0.5 0.375 -1.15625q0.125 -0.65625 0.125 -1.3749962q0 -1.34375 -0.296875 -2.21875q-0.296875 -0.890625 -0.8125 -1.296875q-0.5 -0.421875 -1.15625 -0.421875q-1.09375 0 -1.6875 0.953125q-0.59375 0.953125 -0.59375 2.71875zm12.792664 -3.3125l-2.171875 0l0 5.499996q0 0.609375 0.046875 0.921875q0.0625 0.3125 0.171875 0.46875q0.125 0.15625 0.3125 0.265625q0.1875 0.09375 0.59375 0.171875l0 0.453125l-3.71875 0l0 -0.453125q0.390625 -0.109375 0.5625 -0.203125q0.1875 -0.09375 0.28125 -0.25q0.09375 -0.15625 0.140625 -0.453125q0.046875 -0.296875 0.046875 -0.921875l0 -5.499996l-1.109375 0l0 -0.46875q0.34375 -0.0625 0.453125 -0.09375q0.125 -0.03125 0.21875 -0.09375q0.109375 -0.0625 0.1875 -0.171875q0.078125 -0.125 0.140625 -0.359375q0.0625 -0.234375 0.09375 -0.65625q0.078125 -0.984375 0.359375 -1.59375q0.28125 -0.625 0.8125 -1.0625q0.53125 -0.4375 1.140625 -0.609375q0.609375 -0.1875 1.421875 -0.1875q0.71875 0 1.21875 0.09375l0 1.65625l-0.90625 0q-0.171875 -0.546875 -0.40625 -0.765625q-0.21875 -0.21875 -0.640625 -0.21875q-0.296875 0 -0.515625 0.078125q-0.203125 0.078125 -0.375 0.25q-0.171875 0.171875 -0.296875 0.46875q-0.125 0.296875 -0.1875 0.734375q-0.046875 0.421875 -0.046875 1.109375l0 0.96875l2.171875 0l0 0.921875zm7.5062866 5.499996q0 0.78125 0.078125 1.09375q0.078125 0.296875 0.28125 0.46875q0.203125 0.15625 0.671875 0.265625l0 0.453125l-3.625 0l0 -0.453125q0.453125 -0.109375 0.625 -0.234375q0.1875 -0.125 0.265625 -0.296875q0.078125 -0.1875 0.109375 -0.484375q0.03125 -0.3125 0.03125 -0.8125l0 -7.624996q0 -0.875 -0.015625 -1.21875q-0.015625 -0.34375 -0.078125 -0.578125q-0.046875 -0.25 -0.15625 -0.375q-0.109375 -0.140625 -0.296875 -0.21875q-0.171875 -0.09375 -0.625 -0.171875l0 -0.46875l2.1875 -0.09375l0.546875 0l0 10.749996zm7.9086304 0.984375l-0.140625 -0.046875q-0.796875 0.8125 -1.5 1.15625q-0.6875 0.328125 -1.46875 0.328125q-0.703125 0 -1.234375 -0.265625q-0.515625 -0.265625 -0.796875 -0.75q-0.28125 -0.484375 -0.28125 -1.125q0 -1.328125 1.3125 -2.0468712q1.3125 -0.734375 3.953125 -0.859375l0 -0.59375q0 -0.9375 -0.1875 -1.484375q-0.1875 -0.546875 -0.578125 -0.796875q-0.390625 -0.265625 -1.046875 -0.265625q-0.703125 0 -1.140625 0.375q-0.4375 0.375 -0.65625 1.125l-1.1875 0l0 -1.1875q0.875 -0.453125 1.453125 -0.671875q0.59375 -0.21875 1.171875 -0.328125q0.578125 -0.125 1.1875 -0.125q0.890625 0 1.4375 0.28125q0.546875 0.28125 0.8125 0.875q0.28125 0.59375 0.28125 1.796875l0 3.1718712q0 0.671875 0 0.953125q0.015625 0.265625 0.0625 0.515625q0.046875 0.234375 0.140625 0.375q0.09375 0.140625 0.265625 0.234375q0.1875 0.09375 0.578125 0.203125l0 0.453125l-2.484375 0l0.046875 -1.296875zm-0.15625 -2.8593712q-1.859375 0.015625 -2.78125 0.4999962q-0.90625 0.46875 -0.90625 1.421875q0 0.515625 0.203125 0.828125q0.203125 0.296875 0.515625 0.40625q0.328125 0.109375 0.765625 0.109375q0.625 0 1.125 -0.296875q0.5 -0.296875 0.78125 -0.75q0.296875 -0.46875 0.296875 -0.9375l0 -1.2812462zm7.843872 4.906246q-0.5 1.125 -0.984375 1.828125q-0.46875 0.703125 -1.03125 1.046875q-0.5625 0.359375 -1.359375 0.359375q-0.5 0 -1.125 -0.109375l0 -1.8125l0.8125 0q0.109375 0.375 0.265625 0.515625q0.171875 0.15625 0.484375 0.15625q0.265625 0 0.484375 -0.109375q0.21875 -0.109375 0.4375 -0.359375q0.234375 -0.25 0.546875 -0.78125q0.328125 -0.53125 0.71875 -1.34375l-2.546875 -6.859371q-0.25 -0.65625 -0.40625 -0.921875q-0.140625 -0.265625 -0.328125 -0.40625q-0.171875 -0.140625 -0.515625 -0.21875l0 -0.4375l3.703125 0l0 0.4375q-0.421875 0.109375 -0.609375 0.203125q-0.171875 0.09375 -0.25 0.25q-0.078125 0.140625 -0.078125 0.375q0 0.25 0.046875 0.515625q0.0625 0.265625 0.203125 0.625l1.609375 4.562496l1.828125 -4.374996q0.15625 -0.375 0.234375 -0.671875q0.09375 -0.3125 0.09375 -0.5625q0 -0.40625 -0.21875 -0.59375q-0.203125 -0.203125 -0.734375 -0.328125l0 -0.4375l3.40625 0l0 0.4375q-0.359375 0.078125 -0.546875 0.234375q-0.1875 0.140625 -0.390625 0.46875q-0.1875 0.328125 -0.453125 0.90625l-3.296875 7.406246zm9.510376 -0.609375q-1.890625 0 -2.890625 -1.109375q-1.0 -1.125 -1.0 -3.2968712q0 -1.515625 0.515625 -2.546875q0.53125 -1.046875 1.4375 -1.546875q0.921875 -0.5 2.078125 -0.5q1.953125 0 2.953125 1.140625q1.015625 1.125 1.015625 3.25q0 1.5156212 -0.515625 2.5468712q-0.5 1.03125 -1.421875 1.546875q-0.90625 0.515625 -2.171875 0.515625zm-2.171875 -4.609371q0 1.8749962 0.59375 2.8906212q0.609375 1.0 1.71875 1.0q0.609375 0 1.03125 -0.296875q0.4375 -0.296875 0.703125 -0.796875q0.265625 -0.5 0.375 -1.15625q0.125 -0.65625 0.125 -1.3749962q0 -1.34375 -0.296875 -2.21875q-0.296875 -0.890625 -0.8125 -1.296875q-0.5 -0.421875 -1.15625 -0.421875q-1.09375 0 -1.6875 0.953125q-0.59375 0.953125 -0.59375 2.71875zm7.9020386 -4.234375l2.59375 0l0 4.625q0 1.0781212 0.078125 1.6406212q0.078125 0.546875 0.234375 0.828125q0.171875 0.28125 0.46875 0.46875q0.3125 0.1875 0.828125 0.1875q0.359375 0 0.671875 -0.125q0.3125 -0.140625 0.703125 -0.484375q0.40625 -0.34375 0.5625 -0.671875q0.171875 -0.34375 0.171875 -0.796875l0 -3.4062462q0 -0.515625 -0.03125 -0.78125q-0.015625 -0.265625 -0.078125 -0.421875q-0.0625 -0.171875 -0.15625 -0.265625q-0.09375 -0.09375 -0.25 -0.171875q-0.15625 -0.09375 -0.515625 -0.1875l0 -0.4375l2.59375 0l0 6.218746q0 0.703125 0.03125 1.015625q0.03125 0.296875 0.125 0.484375q0.09375 0.1875 0.28125 0.296875q0.1875 0.109375 0.6875 0.21875l0 0.46875l-2.09375 0.09375l-0.5625 0l0.0625 -1.5l-0.140625 -0.03125q-0.75 0.8125 -1.4375 1.203125q-0.6875 0.375 -1.375 0.375q-0.84375 0 -1.375 -0.328125q-0.53125 -0.328125 -0.796875 -0.96875q-0.265625 -0.65625 -0.265625 -1.84375l0 -3.4374962q0 -0.765625 -0.0625 -1.046875q-0.0625 -0.296875 -0.234375 -0.453125q-0.15625 -0.171875 -0.71875 -0.328125l0 -0.4375zm9.974731 0.453125q0.453125 -0.078125 0.734375 -0.25q0.28125 -0.1875 0.4375 -0.46875q0.15625 -0.296875 0.25 -0.71875q0.09375 -0.4375 0.1875 -1.265625l1.296875 0l0 2.25l2.9375 0l0 0.921875l-2.9375 0l0 4.046871q0 0.890625 0.0625 1.421875q0.078125 0.515625 0.28125 0.8125q0.203125 0.28125 0.453125 0.421875q0.265625 0.125 0.65625 0.125q0.375 0 0.6875 -0.140625q0.328125 -0.15625 0.625 -0.453125l0.421875 0.5q-0.65625 0.625 -1.234375 0.90625q-0.578125 0.28125 -1.1875 0.28125q-1.1875 0 -1.765625 -0.6875q-0.5625 -0.703125 -0.5625 -2.1875l0 -5.046871l-1.34375 0l0 -0.46875z" fill-rule="nonzero"/><path fill="#f1c232" d="m825.6772 152.7454l-34.348694 11.480713l0 -22.961426zm-24.936462 -56.570374l-15.646301 30.94886l-17.274658 -16.235962zm-60.18164 -23.429626l12.21521 32.283325l-24.43042 0zm-60.189575 23.429626l32.928894 14.712898l-17.27472 16.235962zm-24.928589 56.570374l34.348694 -11.480713l0 22.961426zm24.928589 56.562958l15.654175 -30.941452l17.27472 16.235962zm60.189575 23.437042l-12.21521 -32.283325l24.43042 0zm60.18164 -23.437042l-32.92096 -14.70549l17.274658 -16.235962zm-102.74072 -56.562958c0 -22.091385 19.054321 -40.0 42.559082 -40.0c23.5047 0 42.55902 17.908615 42.55902 40.0c0 22.091385 -19.054321 40.0 -42.55902 40.0c-23.50476 0 -42.559082 -17.908615 -42.559082 -40.0z" fill-rule="evenodd"/><path stroke="#000000" stroke-width="1.0" stroke-linejoin="round" stroke-linecap="butt" d="m825.6772 152.7454l-34.348694 11.480713l0 -22.961426zm-24.936462 -56.570374l-15.646301 30.94886l-17.274658 -16.235962zm-60.18164 -23.429626l12.21521 32.283325l-24.43042 0zm-60.189575 23.429626l32.928894 14.712898l-17.27472 16.235962zm-24.928589 56.570374l34.348694 -11.480713l0 22.961426zm24.928589 56.562958l15.654175 -30.941452l17.27472 16.235962zm60.189575 23.437042l-12.21521 -32.283325l24.43042 0zm60.18164 -23.437042l-32.92096 -14.70549l17.274658 -16.235962zm-102.74072 -56.562958c0 -22.091385 19.054321 -40.0 42.559082 -40.0c23.5047 0 42.55902 17.908615 42.55902 40.0c0 22.091385 -19.054321 40.0 -42.55902 40.0c-23.50476 0 -42.559082 -17.908615 -42.559082 -40.0z" fill-rule="evenodd"/><path fill="#ffffff" d="m216.7454 85.3937l322.80316 0l0 39.84252l-322.80316 0z" fill-rule="evenodd"/><path stroke="#000000" stroke-width="1.0" stroke-linejoin="round" stroke-linecap="butt" d="m216.7454 85.3937l322.80316 0l0 39.84252l-322.80316 0z" fill-rule="evenodd"/><path fill="#000000" d="m226.33916 99.8762l9.859375 0l0 3.171875l-0.890625 0q-0.203125 -0.78125 -0.40625 -1.234375q-0.1875 -0.453125 -0.40625 -0.6875q-0.21875 -0.25 -0.46875 -0.34375q-0.25 -0.109375 -0.75 -0.109375l-1.15625 0l0 9.328125q0 0.546875 0.0625 0.875q0.0625 0.3125 0.171875 0.5q0.125 0.1875 0.328125 0.296875q0.21875 0.09375 0.671875 0.1875l0 0.453125l-4.171875 0l0 -0.453125q0.28125 -0.0625 0.484375 -0.125q0.21875 -0.078125 0.34375 -0.171875q0.140625 -0.109375 0.21875 -0.265625q0.09375 -0.171875 0.140625 -0.453125q0.046875 -0.296875 0.046875 -0.84375l0 -9.328125l-1.140625 0q-0.4375 0 -0.71875 0.09375q-0.265625 0.078125 -0.515625 0.34375q-0.234375 0.25 -0.4375 0.734375q-0.1875 0.46875 -0.359375 1.203125l-0.90625 0l0 -3.171875zm13.949554 0.15625l0 1.765625l-1.671875 0l0 -1.765625l1.671875 0zm-2.59375 11.828125q0.34375 -0.109375 0.5 -0.1875q0.15625 -0.078125 0.25 -0.21875q0.109375 -0.15625 0.171875 -0.453125q0.0625 -0.296875 0.0625 -0.9375l0 -3.96875q0 -0.59375 -0.03125 -0.9375q-0.015625 -0.359375 -0.125 -0.5625q-0.109375 -0.21875 -0.328125 -0.328125q-0.21875 -0.109375 -0.640625 -0.171875l0 -0.484375l2.125 -0.09375l0.5625 0l0 6.515625q0 0.78125 0.0625 1.09375q0.078125 0.296875 0.28125 0.46875q0.203125 0.15625 0.671875 0.265625l0 0.453125l-3.5625 0l0 -0.453125zm4.636429 -7.796875q0.453125 -0.078125 0.734375 -0.25q0.28125 -0.1875 0.4375 -0.46875q0.15625 -0.296875 0.25 -0.71875q0.09375 -0.4375 0.1875 -1.265625l1.296875 0l0 2.25l2.9375 0l0 0.921875l-2.9375 0l0 4.046875q0 0.890625 0.0625 1.421875q0.078125 0.515625 0.28125 0.8125q0.203125 0.28125 0.453125 0.421875q0.265625 0.125 0.65625 0.125q0.375 0 0.6875 -0.140625q0.328125 -0.15625 0.625 -0.453125l0.421875 0.5q-0.65625 0.625 -1.234375 0.90625q-0.578125 0.28125 -1.1875 0.28125q-1.1875 0 -1.765625 -0.6875q-0.5625 -0.703125 -0.5625 -2.1875l0 -5.046875l-1.34375 0l0 -0.46875zm9.281631 5.96875q0 0.78125 0.078125 1.09375q0.078125 0.296875 0.28125 0.46875q0.203125 0.15625 0.671875 0.265625l0 0.453125l-3.625 0l0 -0.453125q0.453125 -0.109375 0.625 -0.234375q0.1875 -0.125 0.265625 -0.296875q0.078125 -0.1875 0.109375 -0.484375q0.03125 -0.3125 0.03125 -0.8125l0 -7.625q0 -0.875 -0.015625 -1.21875q-0.015625 -0.34375 -0.078125 -0.578125q-0.046875 -0.25 -0.15625 -0.375q-0.109375 -0.140625 -0.296875 -0.21875q-0.171875 -0.09375 -0.625 -0.171875l0 -0.46875l2.1875 -0.09375l0.546875 0l0 10.75zm9.908615 0.734375q-0.578125 0.609375 -1.0625 0.953125q-0.484375 0.34375 -1.078125 0.546875q-0.578125 0.1875 -1.28125 0.1875q-1.875 0 -2.8281097 -1.125q-0.953125 -1.125 -0.953125 -3.3125q0 -1.359375 0.484375 -2.390625q0.484375 -1.046875 1.3749847 -1.609375q0.90625 -0.5625 2.09375 -0.5625q0.921875 0 1.5625 0.296875q0.640625 0.28125 1.03125 0.796875q0.390625 0.5 0.59375 1.265625q0.21875 0.765625 0.25 2.015625l-5.7343597 0l0 0.15625q0 1.078125 0.23435974 1.8125q0.25 0.734375 0.796875 1.15625q0.546875 0.40625 1.4375 0.40625q0.75 0 1.34375 -0.28125q0.59375 -0.28125 1.1875 -0.90625l0.546875 0.59375zm-1.53125 -3.703125q-0.046875 -0.984375 -0.25 -1.609375q-0.1875 -0.625 -0.578125 -0.953125q-0.375 -0.328125 -0.984375 -0.328125q-0.9375 0 -1.5 0.75q-0.5625 0.75 -0.65625 2.140625l3.96875 0z" fill-rule="nonzero"/><path fill="#000000" d="m493.02158 109.8137q0 0.484375 -0.171875 0.875q-0.15625 0.375 -0.4375 0.671875q-0.28125 0.296875 -0.65625 0.515625q-0.375 0.203125 -0.796875 0.34375q-0.421875 0.125 -0.875 0.1875q-0.453125 0.0625 -0.875 0.0625q-0.921875 0 -1.703125 -0.078125q-0.78125 -0.078125 -1.53125 -0.265625l0 -1.453125q0.796875 0.234375 1.59375 0.359375q0.796875 0.109375 1.578125 0.109375q1.140625 0 1.6875 -0.3125q0.546875 -0.3125 0.546875 -0.890625q0 -0.234375 -0.09375 -0.421875q-0.078125 -0.203125 -0.3125 -0.375q-0.21875 -0.1875 -0.703125 -0.375q-0.484375 -0.203125 -1.3125 -0.4375q-0.609375 -0.1875 -1.140625 -0.421875q-0.515625 -0.234375 -0.90625 -0.546875q-0.375 -0.328125 -0.59375 -0.75q-0.21875 -0.421875 -0.21875 -1.015625q0 -0.375 0.171875 -0.828125q0.171875 -0.453125 0.59375 -0.84375q0.4375 -0.40625 1.171875 -0.65625q0.734375 -0.265625 1.8125 -0.265625q0.546875 0 1.203125 0.0625q0.65625 0.0625 1.359375 0.203125l0 1.40625q-0.75 -0.171875 -1.421875 -0.25q-0.65625 -0.09375 -1.15625 -0.09375q-0.59375 0 -1.0 0.09375q-0.390625 0.078125 -0.65625 0.25q-0.25 0.15625 -0.359375 0.375q-0.109375 0.203125 -0.109375 0.453125q0 0.25 0.09375 0.453125q0.109375 0.1875 0.359375 0.375q0.265625 0.1875 0.71875 0.375q0.46875 0.1875 1.21875 0.40625q0.8125 0.234375 1.359375 0.5q0.5625 0.25 0.90625 0.578125q0.359375 0.3125 0.5 0.71875q0.15625 0.40625 0.15625 0.90625zm6.1322937 -9.0625l-2.703125 0l0 -1.3125l4.296875 0l0 11.546875l2.734375 0l0 1.328125l-7.34375 0l0 -1.328125l3.015625 0l0 -10.234375zm15.101074 6.921875q0 1.0625 -0.3125 1.953125q-0.296875 0.890625 -0.859375 1.53125q-0.5625 0.625 -1.3750305 0.96875q-0.8125 0.34375 -1.84375 0.34375q-0.984375 0 -1.765625 -0.296875q-0.765625 -0.3125 -1.3125 -0.890625q-0.546875 -0.59375 -0.828125 -1.46875q-0.28125 -0.875 -0.28125 -2.015625q0 -1.0625 0.296875 -1.9375q0.296875 -0.890625 0.859375 -1.515625q0.5625 -0.640625 1.375 -0.984375q0.8125 -0.359375 1.84375 -0.359375q0.984375 0 1.765625 0.3125q0.7812805 0.296875 1.3125305 0.890625q0.546875 0.578125 0.828125 1.453125q0.296875 0.875 0.296875 2.015625zm-1.625 0.0625q0 -0.84375 -0.1875 -1.46875q-0.1875 -0.640625 -0.5312805 -1.0625q-0.34375 -0.421875 -0.84375 -0.640625q-0.5 -0.21875 -1.109375 -0.21875q-0.703125 0 -1.21875 0.28125q-0.5 0.28125 -0.828125 0.75q-0.3125 0.453125 -0.46875 1.078125q-0.15625 0.609375 -0.15625 1.28125q0 0.859375 0.1875 1.5q0.1875 0.625 0.53125 1.046875q0.359375 0.421875 0.84375 0.640625q0.5 0.21875 1.109375 0.21875q0.71875 0 1.21875 -0.28125q0.5 -0.28125 0.8281555 -0.734375q0.328125 -0.46875 0.46875 -1.078125q0.15625 -0.625 0.15625 -1.3125zm11.288513 4.453125q-0.53125 0.140625 -1.109375 0.1875q-0.578125 0.0625 -1.171875 0.0625q-1.71875 0 -2.5625 -0.78125q-0.84375 -0.78125 -0.84375 -2.390625l0 -4.765625l-2.5625 0l0 -1.328125l2.5625 0l0 -2.515625l1.578125 -0.40625l0 2.921875l4.109375 0l0 1.328125l-4.109375 0l0 4.640625q0 0.984375 0.515625 1.46875q0.53125 0.484375 1.546875 0.484375q0.4375 0 0.953125 -0.0625q0.53125 -0.0625 1.09375 -0.21875l0 1.375z" fill-rule="nonzero"/><path fill="#ffffff" d="m45.02362 85.393715l156.28346 0l0 581.0079l-156.28346 0z" fill-rule="evenodd"/><path stroke="#000000" stroke-width="1.0" stroke-linejoin="round" stroke-linecap="butt" d="m45.02362 85.393715l156.28346 0l0 581.0079l-156.28346 0z" fill-rule="evenodd"/><path fill="#000000" d="m55.96112 109.48559q0.171875 0.796875 0.484375 1.265625q0.3125 0.453125 0.796875 0.6875q0.5 0.21875 1.265625 0.21875q1.078125 0 1.640625 -0.546875q0.578125 -0.5625 0.578125 -1.625q0 -0.6875 -0.25 -1.15625q-0.234375 -0.46875 -0.78125 -0.875q-0.53125 -0.40625 -1.625 -0.953125q-1.0625 -0.53125 -1.6875 -1.03125q-0.625 -0.5 -0.9375 -1.09375q-0.296875 -0.59375 -0.296875 -1.296875q0 -1.015625 0.484375 -1.765625q0.484375 -0.765625 1.40625 -1.171875q0.921875 -0.40625 2.109375 -0.40625q0.703125 0 1.359375 0.078125q0.65625 0.0625 1.65625 0.328125l0 2.453125l-0.90625 0q-0.21875 -0.796875 -0.53125 -1.25q-0.3125 -0.453125 -0.75 -0.625q-0.421875 -0.171875 -1.109375 -0.171875q-0.59375 0 -1.0625 0.21875q-0.46875 0.21875 -0.75 0.65625q-0.265625 0.4375 -0.265625 1.046875q0 0.65625 0.234375 1.109375q0.234375 0.4375 0.71875 0.828125q0.5 0.375 1.46875 0.84375q1.15625 0.578125 1.796875 1.09375q0.65625 0.5 1.015625 1.140625q0.359375 0.640625 0.359375 1.5q0 0.953125 -0.3125 1.609375q-0.296875 0.65625 -0.828125 1.078125q-0.53125 0.40625 -1.28125 0.59375q-0.734375 0.1875 -1.625 0.1875q-1.421875 0 -3.296875 -0.484375l0 -2.484375l0.921875 0zm10.802124 -9.453125l0 1.765625l-1.671875 0l0 -1.765625l1.671875 0zm-2.59375 11.828125q0.34375 -0.109375 0.5 -0.1875q0.15625 -0.078125 0.25 -0.21875q0.109375 -0.15625 0.171875 -0.453125q0.0625 -0.296875 0.0625 -0.9375l0 -3.96875q0 -0.59375 -0.03125 -0.9375q-0.015625 -0.359375 -0.125 -0.5625q-0.109375 -0.21875 -0.328125 -0.328125q-0.21875 -0.109375 -0.640625 -0.171875l0 -0.484375l2.125 -0.09375l0.5625 0l0 6.515625q0 0.78125 0.0625 1.09375q0.078125 0.296875 0.28125 0.46875q0.203125 0.15625 0.671875 0.265625l0 0.453125l-3.5625 0l0 -0.453125zm11.323929 -9.453125q0 -0.875 -0.015625 -1.21875q-0.015625 -0.34375 -0.078125 -0.578125q-0.046875 -0.25 -0.15625 -0.375q-0.109375 -0.140625 -0.28125 -0.21875q-0.171875 -0.09375 -0.640625 -0.171875l0 -0.46875l2.203125 -0.09375l0.53125 0l0 10.546875q0 0.703125 0.03125 1.015625q0.03125 0.296875 0.125 0.484375q0.09375 0.1875 0.28125 0.296875q0.203125 0.109375 0.6875 0.21875l0 0.46875l-2.15625 0.09375l-0.546875 0l0.109375 -1.5l-0.125 -0.03125q-0.578125 0.609375 -1.0 0.921875q-0.421875 0.296875 -0.90625 0.484375q-0.46875 0.171875 -1.015625 0.171875q-1.5 0 -2.3125 -1.125q-0.8125 -1.140625 -0.8125 -3.28125q0 -1.484375 0.53125 -2.53125q0.53125 -1.046875 1.421875 -1.546875q0.90625 -0.515625 2.015625 -0.515625q0.609375 0 1.09375 0.09375q0.5 0.09375 1.015625 0.3125l0 -1.453125zm0 4.5q0 -0.703125 -0.0625 -1.125q-0.0625 -0.4375 -0.21875 -0.71875q-0.140625 -0.296875 -0.40625 -0.5q-0.25 -0.203125 -0.5625 -0.296875q-0.296875 -0.09375 -0.71875 -0.09375q-1.171875 0 -1.78125 0.9375q-0.609375 0.9375 -0.609375 2.6875q0 1.75 0.5 2.65625q0.5 0.90625 1.515625 0.90625q0.40625 0 0.671875 -0.0625q0.265625 -0.0625 0.515625 -0.21875q0.25 -0.15625 0.515625 -0.40625q0.265625 -0.265625 0.390625 -0.484375q0.125 -0.21875 0.1875 -0.5q0.0625 -0.296875 0.0625 -0.734375l0 -2.046875zm11.473389 3.859375q-0.578125 0.609375 -1.0625 0.953125q-0.484375 0.34375 -1.078125 0.546875q-0.578125 0.1875 -1.28125 0.1875q-1.875 0 -2.828125 -1.125q-0.953125 -1.125 -0.953125 -3.3125q0 -1.359375 0.484375 -2.390625q0.484375 -1.046875 1.375 -1.609375q0.90625 -0.5625 2.09375 -0.5625q0.921875 0 1.5625 0.296875q0.640625 0.28125 1.03125 0.796875q0.390625 0.5 0.59375 1.265625q0.21875 0.765625 0.25 2.015625l-5.734375 0l0 0.15625q0 1.078125 0.234375 1.8125q0.25 0.734375 0.796875 1.15625q0.546875 0.40625 1.4375 0.40625q0.75 0 1.34375 -0.28125q0.59375 -0.28125 1.1875 -0.90625l0.546875 0.59375zm-1.53125 -3.703125q-0.046875 -0.984375 -0.25 -1.609375q-0.1875 -0.625 -0.578125 -0.953125q-0.375 -0.328125 -0.984375 -0.328125q-0.9375 0 -1.5 0.75q-0.5625 0.75 -0.65625 2.140625l3.96875 0zm5.6472626 -2.03125l0.046875 0.015625q0.640625 -0.671875 1.0625 -0.96875q0.421875 -0.296875 0.875 -0.453125q0.453125 -0.171875 0.984375 -0.171875q0.96875 0 1.671875 0.5q0.703125 0.5 1.078125 1.5q0.375 0.984375 0.375 2.421875q0 1.484375 -0.453125 2.515625q-0.453125 1.015625 -1.328125 1.546875q-0.875 0.515625 -2.078125 0.515625q-0.671875 0 -1.28125 -0.125q-0.59375 -0.109375 -1.25 -0.421875l-0.640625 0.546875l-0.625 -0.140625l0 -9.90625q0 -0.875 -0.015625 -1.21875q-0.015625 -0.34375 -0.078125 -0.578125q-0.046875 -0.25 -0.15625 -0.375q-0.109375 -0.140625 -0.28125 -0.21875q-0.171875 -0.09375 -0.640625 -0.171875l0 -0.46875l2.203125 -0.09375l0.53125 0l0 5.75zm0 4.0q0 0.703125 0.0625 1.125q0.078125 0.40625 0.21875 0.6875q0.15625 0.265625 0.4375 0.5q0.296875 0.21875 0.640625 0.3125q0.359375 0.078125 0.796875 0.078125q1.09375 0 1.65625 -0.890625q0.5625 -0.890625 0.5625 -2.671875q0 -1.8125 -0.515625 -2.71875q-0.515625 -0.90625 -1.546875 -0.90625q-0.515625 0 -0.890625 0.171875q-0.359375 0.15625 -0.71875 0.5q-0.359375 0.328125 -0.53125 0.65625q-0.171875 0.328125 -0.171875 0.75l0 2.40625zm13.196121 1.984375l-0.140625 -0.046875q-0.796875 0.8125 -1.5 1.15625q-0.6875 0.328125 -1.46875 0.328125q-0.703125 0 -1.234375 -0.265625q-0.515625 -0.265625 -0.796875 -0.75q-0.28125 -0.484375 -0.28125 -1.125q0 -1.328125 1.3125 -2.046875q1.3125 -0.734375 3.953125 -0.859375l0 -0.59375q0 -0.9375 -0.1875 -1.484375q-0.1875 -0.546875 -0.578125 -0.796875q-0.390625 -0.265625 -1.046875 -0.265625q-0.703125 0 -1.140625 0.375q-0.4375 0.375 -0.65625 1.125l-1.1875 0l0 -1.1875q0.875 -0.453125 1.453125 -0.671875q0.59375 -0.21875 1.171875 -0.328125q0.578125 -0.125 1.1875 -0.125q0.890625 0 1.4375 0.28125q0.546875 0.28125 0.8125 0.875q0.28125 0.59375 0.28125 1.796875l0 3.171875q0 0.671875 0 0.953125q0.015625 0.265625 0.0625 0.515625q0.046875 0.234375 0.140625 0.375q0.09375 0.140625 0.265625 0.234375q0.1875 0.09375 0.578125 0.203125l0 0.453125l-2.484375 0l0.046875 -1.296875zm-0.15625 -2.859375q-1.859375 0.015625 -2.78125 0.5q-0.90625 0.46875 -0.90625 1.421875q0 0.515625 0.203125 0.828125q0.203125 0.296875 0.515625 0.40625q0.328125 0.109375 0.765625 0.109375q0.625 0 1.125 -0.296875q0.5 -0.296875 0.78125 -0.75q0.296875 -0.46875 0.296875 -0.9375l0 -1.28125zm6.453247 -3.046875l0.125 0.03125q0.5 -0.609375 0.921875 -0.953125q0.4375 -0.359375 0.9375 -0.546875q0.5 -0.1875 1.125 -0.1875q0.53125 0 0.953125 0.046875l0 2.09375l-1.03125 0q-0.21875 -0.484375 -0.46875 -0.703125q-0.234375 -0.234375 -0.671875 -0.234375q-0.328125 0 -0.65625 0.203125q-0.3125 0.1875 -0.625 0.546875q-0.296875 0.359375 -0.40625 0.6875q-0.109375 0.3125 -0.109375 0.75l0 3.1875q0 0.828125 0.09375 1.15625q0.109375 0.3125 0.328125 0.453125q0.234375 0.140625 0.703125 0.21875l0 0.453125l-3.671875 0l0 -0.453125q0.34375 -0.109375 0.5 -0.1875q0.15625 -0.078125 0.265625 -0.21875q0.109375 -0.15625 0.15625 -0.453125q0.0625 -0.296875 0.0625 -0.9375l0 -3.96875q0 -0.59375 -0.03125 -0.9375q-0.015625 -0.359375 -0.125 -0.5625q-0.109375 -0.21875 -0.328125 -0.328125q-0.21875 -0.109375 -0.640625 -0.171875l0 -0.484375l2.140625 -0.09375l0.546875 0l-0.09375 1.59375z" fill-rule="nonzero"/><path fill="#000000" d="m62.726746 659.8137q0 0.484375 -0.171875 0.875q-0.15625 0.375 -0.4375 0.671875q-0.28125 0.296875 -0.65625 0.515625q-0.375 0.203125 -0.796875 0.34375q-0.421875 0.125 -0.875 0.1875q-0.453125 0.0625 -0.875 0.0625q-0.921875 0 -1.703125 -0.078125q-0.78125 -0.078125 -1.53125 -0.265625l0 -1.453125q0.796875 0.234375 1.59375 0.359375q0.796875 0.109375 1.578125 0.109375q1.140625 0 1.6875 -0.3125q0.546875 -0.3125 0.546875 -0.890625q0 -0.234375 -0.09375 -0.421875q-0.078125 -0.203125 -0.3125 -0.375q-0.21875 -0.1875 -0.703125 -0.375q-0.484375 -0.203125 -1.3125 -0.4375q-0.609375 -0.1875 -1.140625 -0.421875q-0.515625 -0.234375 -0.90625 -0.546875q-0.375 -0.328125 -0.59375 -0.75q-0.21875 -0.421875 -0.21875 -1.015625q0 -0.375 0.171875 -0.828125q0.171875 -0.453125 0.59375 -0.84375q0.4375 -0.40625 1.171875 -0.65625q0.734375 -0.265625 1.8125 -0.265625q0.546875 0 1.203125 0.0625q0.65625 0.0625 1.359375 0.203125l0 1.40625q-0.75 -0.171875 -1.421875 -0.25q-0.65625 -0.09375 -1.15625 -0.09375q-0.59375 0 -1.0 0.09375q-0.390625 0.078125 -0.65625 0.25q-0.25 0.15625 -0.359375 0.375q-0.109375 0.203125 -0.109375 0.453125q0 0.25 0.09375 0.453125q0.109375 0.1875 0.359375 0.375q0.265625 0.1875 0.71875 0.375q0.46875 0.1875 1.21875 0.40625q0.8125 0.234375 1.359375 0.5q0.5625 0.25 0.90625 0.578125q0.359375 0.3125 0.5 0.71875q0.15625 0.40625 0.15625 0.90625zm6.1322937 -9.0625l-2.703125 0l0 -1.3125l4.296875 0l0 11.546875l2.734375 0l0 1.328125l-7.34375 0l0 -1.328125l3.015625 0l0 -10.234375zm15.101044 6.921875q0 1.0625 -0.3125 1.953125q-0.296875 0.890625 -0.859375 1.53125q-0.5625 0.625 -1.375 0.96875q-0.8125 0.34375 -1.84375 0.34375q-0.984375 0 -1.765625 -0.296875q-0.765625 -0.3125 -1.3125 -0.890625q-0.546875 -0.59375 -0.828125 -1.46875q-0.28125 -0.875 -0.28125 -2.015625q0 -1.0625 0.296875 -1.9375q0.296875 -0.890625 0.859375 -1.515625q0.5625 -0.640625 1.375 -0.984375q0.8125 -0.359375 1.84375 -0.359375q0.984375 0 1.765625 0.3125q0.78125 0.296875 1.3125 0.890625q0.546875 0.578125 0.828125 1.453125q0.296875 0.875 0.296875 2.015625zm-1.625 0.0625q0 -0.84375 -0.1875 -1.46875q-0.1875 -0.640625 -0.53125 -1.0625q-0.34375 -0.421875 -0.84375 -0.640625q-0.5 -0.21875 -1.109375 -0.21875q-0.703125 0 -1.21875 0.28125q-0.5 0.28125 -0.828125 0.75q-0.3125 0.453125 -0.46875 1.078125q-0.15625 0.609375 -0.15625 1.28125q0 0.859375 0.1875 1.5q0.1875 0.625 0.53125 1.046875q0.359375 0.421875 0.84375 0.640625q0.5 0.21875 1.109375 0.21875q0.71875 0 1.21875 -0.28125q0.5 -0.28125 0.828125 -0.734375q0.328125 -0.46875 0.46875 -1.078125q0.15625 -0.625 0.15625 -1.3125zm11.288544 4.453125q-0.53125 0.140625 -1.109375 0.1875q-0.578125 0.0625 -1.171875 0.0625q-1.71875 0 -2.5625 -0.78125q-0.84375 -0.78125 -0.84375 -2.390625l0 -4.765625l-2.5625 0l0 -1.328125l2.5625 0l0 -2.515625l1.578125 -0.40625l0 2.921875l4.109375 0l0 1.328125l-4.109375 0l0 4.640625q0 0.984375 0.515625 1.46875q0.53125 0.484375 1.546875 0.484375q0.4375 0 0.953125 -0.0625q0.53125 -0.0625 1.09375 -0.21875l0 1.375z" fill-rule="nonzero"/><path fill="#ffffff" d="m216.74516 592.18567l322.80316 0l0 74.04724l-322.80316 0z" fill-rule="evenodd"/><path stroke="#000000" stroke-width="1.0" stroke-linejoin="round" stroke-linecap="butt" d="m216.74516 592.18567l322.80316 0l0 74.04724l-322.80316 0z" fill-rule="evenodd"/><path fill="#000000" d="m235.15141 606.66815l0 2.75l-0.890625 0q-0.203125 -0.609375 -0.390625 -0.984375q-0.1875 -0.390625 -0.390625 -0.59375q-0.203125 -0.203125 -0.484375 -0.28125q-0.265625 -0.09375 -0.703125 -0.09375l-2.671875 0l0 4.96875l1.875 0q0.40625 0 0.625 -0.125q0.234375 -0.140625 0.375 -0.453125q0.15625 -0.3125 0.296875 -0.953125l0.84375 0l0 3.84375l-0.84375 0q-0.140625 -0.625 -0.296875 -0.9375q-0.15625 -0.3125 -0.375 -0.4375q-0.203125 -0.140625 -0.625 -0.140625l-1.875 0l0 3.5625q0 0.546875 0.0625 0.875q0.0625 0.328125 0.203125 0.53125q0.15625 0.1875 0.390625 0.28125q0.25 0.09375 0.609375 0.171875l0 0.453125l-4.03125 0l0 -0.453125q0.5625 -0.140625 0.75 -0.3125q0.1875 -0.1875 0.25 -0.515625q0.0625 -0.328125 0.0625 -1.0l0 -7.875q0 -0.625 -0.046875 -0.90625q-0.046875 -0.296875 -0.15625 -0.453125q-0.09375 -0.15625 -0.28125 -0.25q-0.171875 -0.109375 -0.578125 -0.21875l0 -0.453125l8.296875 0zm5.4488373 12.578125q-1.890625 0 -2.890625 -1.109375q-1.0 -1.125 -1.0 -3.296875q0 -1.515625 0.515625 -2.546875q0.53125 -1.046875 1.4375 -1.546875q0.921875 -0.5 2.078125 -0.5q1.953125 0 2.953125 1.140625q1.015625 1.125 1.015625 3.25q0 1.515625 -0.515625 2.546875q-0.5 1.03125 -1.421875 1.546875q-0.90625 0.515625 -2.171875 0.515625zm-2.171875 -4.609375q0 1.875 0.59375 2.890625q0.609375 1.0 1.71875 1.0q0.609375 0 1.03125 -0.296875q0.4375 -0.296875 0.703125 -0.796875q0.265625 -0.5 0.375 -1.15625q0.125 -0.65625 0.125 -1.375q0 -1.34375 -0.296875 -2.21875q-0.296875 -0.890625 -0.8125 -1.296875q-0.5 -0.421875 -1.15625 -0.421875q-1.09375 0 -1.6875 0.953125q-0.59375 0.953125 -0.59375 2.71875zm12.073898 4.609375q-1.890625 0 -2.890625 -1.109375q-1.0 -1.125 -1.0 -3.296875q0 -1.515625 0.515625 -2.546875q0.53125 -1.046875 1.4375 -1.546875q0.921875 -0.5 2.078125 -0.5q1.953125 0 2.953125 1.140625q1.015625 1.125 1.015625 3.25q0 1.515625 -0.515625 2.546875q-0.5 1.03125 -1.421875 1.546875q-0.90625 0.515625 -2.171875 0.515625zm-2.171875 -4.609375q0 1.875 0.59375 2.890625q0.609375 1.0 1.71875 1.0q0.609375 0 1.03125 -0.296875q0.4375 -0.296875 0.703125 -0.796875q0.265625 -0.5 0.375 -1.15625q0.125 -0.65625 0.125 -1.375q0 -1.34375 -0.296875 -2.21875q-0.296875 -0.890625 -0.8125 -1.296875q-0.5 -0.421875 -1.15625 -0.421875q-1.09375 0 -1.6875 0.953125q-0.59375 0.953125 -0.59375 2.71875zm7.5738983 -3.78125q0.453125 -0.078125 0.734375 -0.25q0.28125 -0.1875 0.4375 -0.46875q0.15625 -0.296875 0.25 -0.71875q0.09375 -0.4375 0.1875 -1.265625l1.296875 0l0 2.25l2.9375 0l0 0.921875l-2.9375 0l0 4.046875q0 0.890625 0.0625 1.421875q0.078125 0.515625 0.28125 0.8125q0.203125 0.28125 0.453125 0.421875q0.265625 0.125 0.65625 0.125q0.375 0 0.6875 -0.140625q0.328125 -0.15625 0.625 -0.453125l0.421875 0.5q-0.65625 0.625 -1.234375 0.90625q-0.578125 0.28125 -1.1875 0.28125q-1.1875 0 -1.765625 -0.6875q-0.5625 -0.703125 -0.5625 -2.1875l0 -5.046875l-1.34375 0l0 -0.46875zm14.125366 6.703125q-0.578125 0.609375 -1.0625 0.953125q-0.484375 0.34375 -1.078125 0.546875q-0.578125 0.1875 -1.28125 0.1875q-1.875 0 -2.828125 -1.125q-0.953125 -1.125 -0.953125 -3.3125q0 -1.359375 0.484375 -2.390625q0.484375 -1.046875 1.375 -1.609375q0.90625 -0.5625 2.09375 -0.5625q0.921875 0 1.5625 0.296875q0.640625 0.28125 1.03125 0.796875q0.390625 0.5 0.59375 1.265625q0.21875 0.765625 0.25 2.015625l-5.734375 0l0 0.15625q0 1.078125 0.234375 1.8125q0.25 0.734375 0.796875 1.15625q0.546875 0.40625 1.4375 0.40625q0.75 0 1.34375 -0.28125q0.59375 -0.28125 1.1875 -0.90625l0.546875 0.59375zm-1.53125 -3.703125q-0.046875 -0.984375 -0.25 -1.609375q-0.1875 -0.625 -0.578125 -0.953125q-0.375 -0.328125 -0.984375 -0.328125q-0.9375 0 -1.5 0.75q-0.5625 0.75 -0.65625 2.140625l3.96875 0zm5.819153 -1.953125l0.125 0.03125q0.5 -0.609375 0.921875 -0.953125q0.4375 -0.359375 0.9375 -0.546875q0.5 -0.1875 1.125 -0.1875q0.53125 0 0.953125 0.046875l0 2.09375l-1.03125 0q-0.21875 -0.484375 -0.46875 -0.703125q-0.234375 -0.234375 -0.671875 -0.234375q-0.328125 0 -0.65625 0.203125q-0.3125 0.1875 -0.625 0.546875q-0.296875 0.359375 -0.40625 0.6875q-0.109375 0.3125 -0.109375 0.75l0 3.1875q0 0.828125 0.09375 1.15625q0.109375 0.3125 0.328125 0.453125q0.234375 0.140625 0.703125 0.21875l0 0.453125l-3.671875 0l0 -0.453125q0.34375 -0.109375 0.5 -0.1875q0.15625 -0.078125 0.265625 -0.21875q0.109375 -0.15625 0.15625 -0.453125q0.0625 -0.296875 0.0625 -0.9375l0 -3.96875q0 -0.59375 -0.03125 -0.9375q-0.015625 -0.359375 -0.125 -0.5625q-0.109375 -0.21875 -0.328125 -0.328125q-0.21875 -0.109375 -0.640625 -0.171875l0 -0.484375l2.140625 -0.09375l0.546875 0l-0.09375 1.59375z" fill-rule="nonzero"/><path fill="#000000" d="m496.9202 616.60565q0 0.484375 -0.171875 0.875q-0.15625 0.375 -0.4375 0.671875q-0.28125 0.296875 -0.65625 0.515625q-0.375 0.203125 -0.796875 0.34375q-0.421875 0.125 -0.875 0.1875q-0.453125 0.0625 -0.875 0.0625q-0.921875 0 -1.703125 -0.078125q-0.78125 -0.078125 -1.53125 -0.265625l0 -1.453125q0.796875 0.234375 1.59375 0.359375q0.796875 0.109375 1.578125 0.109375q1.140625 0 1.6875 -0.3125q0.546875 -0.3125 0.546875 -0.890625q0 -0.234375 -0.09375 -0.421875q-0.078125 -0.203125 -0.3125 -0.375q-0.21875 -0.1875 -0.703125 -0.375q-0.484375 -0.203125 -1.3125 -0.4375q-0.609375 -0.1875 -1.140625 -0.421875q-0.515625 -0.234375 -0.90625 -0.546875q-0.375 -0.328125 -0.59375 -0.75q-0.21875 -0.421875 -0.21875 -1.015625q0 -0.375 0.171875 -0.828125q0.171875 -0.453125 0.59375 -0.84375q0.4375 -0.40625 1.171875 -0.65625q0.734375 -0.265625 1.8125 -0.265625q0.546875 0 1.203125 0.0625q0.65625 0.0625 1.359375 0.203125l0 1.40625q-0.75 -0.171875 -1.421875 -0.25q-0.65625 -0.09375 -1.15625 -0.09375q-0.59375 0 -1.0 0.09375q-0.390625 0.078125 -0.65625 0.25q-0.25 0.15625 -0.359375 0.375q-0.109375 0.203125 -0.109375 0.453125q0 0.25 0.09375 0.453125q0.109375 0.1875 0.359375 0.375q0.265625 0.1875 0.71875 0.375q0.46875 0.1875 1.21875 0.40625q0.8125 0.234375 1.359375 0.5q0.5625 0.25 0.90625 0.578125q0.359375 0.3125 0.5 0.71875q0.15625 0.40625 0.15625 0.90625zm6.1322937 -9.0625l-2.703125 0l0 -1.3125l4.296875 0l0 11.546875l2.734375 0l0 1.328125l-7.34375 0l0 -1.328125l3.015625 0l0 -10.234375zm15.101074 6.921875q0 1.0625 -0.3125 1.953125q-0.296875 0.890625 -0.859375 1.53125q-0.5625 0.625 -1.375 0.96875q-0.8125 0.34375 -1.84375 0.34375q-0.984375 0 -1.7656555 -0.296875q-0.765625 -0.3125 -1.3125 -0.890625q-0.546875 -0.59375 -0.828125 -1.46875q-0.28125 -0.875 -0.28125 -2.015625q0 -1.0625 0.296875 -1.9375q0.296875 -0.890625 0.859375 -1.515625q0.5625 -0.640625 1.3750305 -0.984375q0.8125 -0.359375 1.84375 -0.359375q0.984375 0 1.765625 0.3125q0.78125 0.296875 1.3125 0.890625q0.546875 0.578125 0.828125 1.453125q0.296875 0.875 0.296875 2.015625zm-1.625 0.0625q0 -0.84375 -0.1875 -1.46875q-0.1875 -0.640625 -0.53125 -1.0625q-0.34375 -0.421875 -0.84375 -0.640625q-0.5 -0.21875 -1.109375 -0.21875q-0.703125 0 -1.21875 0.28125q-0.5 0.28125 -0.8281555 0.75q-0.3125 0.453125 -0.46875 1.078125q-0.15625 0.609375 -0.15625 1.28125q0 0.859375 0.1875 1.5q0.1875 0.625 0.53125 1.046875q0.35940552 0.421875 0.8437805 0.640625q0.5 0.21875 1.109375 0.21875q0.71875 0 1.21875 -0.28125q0.5 -0.28125 0.828125 -0.734375q0.328125 -0.46875 0.46875 -1.078125q0.15625 -0.625 0.15625 -1.3125zm11.288513 4.453125q-0.53125 0.140625 -1.109375 0.1875q-0.578125 0.0625 -1.171875 0.0625q-1.71875 0 -2.5625 -0.78125q-0.84375 -0.78125 -0.84375 -2.390625l0 -4.765625l-2.5625 0l0 -1.328125l2.5625 0l0 -2.515625l1.578125 -0.40625l0 2.921875l4.109375 0l0 1.328125l-4.109375 0l0 4.640625q0 0.984375 0.515625 1.46875q0.53125 0.484375 1.546875 0.484375q0.4375 0 0.953125 -0.0625q0.53125 -0.0625 1.09375 -0.21875l0 1.375z" fill-rule="nonzero"/><path fill="#ffffff" d="m554.9869 232.18898l304.53546 0l0 434.04724l-304.53546 0z" fill-rule="evenodd"/><path stroke="#000000" stroke-width="1.0" stroke-linejoin="round" stroke-linecap="butt" d="m554.9869 232.18898l304.53546 0l0 434.04724l-304.53546 0z" fill-rule="evenodd"/><path fill="#000000" d="m573.47125 246.9371l0 2.53125l-0.890625 0q-0.21875 -0.796875 -0.5625 -1.265625q-0.328125 -0.46875 -0.78125 -0.671875q-0.4375 -0.203125 -1.078125 -0.203125q-0.9375 0 -1.671875 0.625q-0.734375 0.625 -1.15625 1.875q-0.40625 1.25 -0.40625 3.03125q0 1.78125 0.34375 3.046875q0.34375 1.265625 1.015625 1.90625q0.671875 0.640625 1.65625 0.640625q0.75 0 1.21875 -0.203125q0.484375 -0.21875 0.796875 -0.6875q0.328125 -0.46875 0.625 -1.375l0.890625 0l0 2.609375q-0.84375 0.234375 -1.75 0.34375q-0.890625 0.109375 -1.96875 0.109375q-2.3125 0 -3.5 -1.5625q-1.1875 -1.5625 -1.1875 -4.671875q0 -1.953125 0.609375 -3.421875q0.625 -1.46875 1.8125 -2.265625q1.203125 -0.796875 2.859375 -0.796875q0.828125 0 1.53125 0.09375q0.703125 0.078125 1.59375 0.3125zm5.8535156 12.3125q-1.890625 0 -2.890625 -1.109375q-1.0 -1.125 -1.0 -3.296875q0 -1.515625 0.515625 -2.546875q0.53125 -1.046875 1.4375 -1.546875q0.921875 -0.5 2.078125 -0.5q1.953125 0 2.953125 1.140625q1.015625 1.125 1.015625 3.25q0 1.515625 -0.515625 2.546875q-0.5 1.03125 -1.421875 1.546875q-0.90625 0.515625 -2.171875 0.515625zm-2.171875 -4.609375q0 1.875 0.59375 2.890625q0.609375 1.0 1.71875 1.0q0.609375 0 1.03125 -0.296875q0.4375 -0.296875 0.703125 -0.796875q0.265625 -0.5 0.375 -1.15625q0.125 -0.65625 0.125 -1.375q0 -1.34375 -0.296875 -2.21875q-0.296875 -0.890625 -0.8125 -1.296875q-0.5 -0.421875 -1.15625 -0.421875q-1.09375 0 -1.6875 0.953125q-0.59375 0.953125 -0.59375 2.71875zm16.980164 4.46875l-3.578125 0l0 -0.453125q0.34375 -0.109375 0.5 -0.1875q0.15625 -0.078125 0.265625 -0.21875q0.109375 -0.15625 0.15625 -0.453125q0.0625 -0.3125 0.0625 -0.921875l0 -2.390625q0 -0.640625 -0.03125 -1.15625q-0.03125 -0.515625 -0.125 -0.84375q-0.078125 -0.34375 -0.203125 -0.53125q-0.125 -0.1875 -0.296875 -0.3125q-0.171875 -0.140625 -0.390625 -0.21875q-0.21875 -0.078125 -0.578125 -0.078125q-0.34375 0 -0.671875 0.140625q-0.3125 0.140625 -0.703125 0.5q-0.375 0.34375 -0.546875 0.6875q-0.171875 0.328125 -0.171875 0.765625l0 3.390625q0 0.78125 0.0625 1.09375q0.078125 0.296875 0.28125 0.46875q0.203125 0.15625 0.671875 0.265625l0 0.453125l-3.5625 0l0 -0.453125q0.34375 -0.109375 0.5 -0.1875q0.15625 -0.078125 0.25 -0.21875q0.109375 -0.15625 0.171875 -0.453125q0.0625 -0.296875 0.0625 -0.9375l0 -3.96875q0 -0.59375 -0.03125 -0.9375q-0.015625 -0.359375 -0.125 -0.5625q-0.109375 -0.21875 -0.328125 -0.328125q-0.21875 -0.109375 -0.640625 -0.171875l0 -0.484375l2.140625 -0.09375l0.546875 0l-0.09375 1.484375l0.125 0.046875q0.671875 -0.6875 1.078125 -0.96875q0.421875 -0.296875 0.84375 -0.453125q0.4375 -0.171875 0.90625 -0.171875q0.484375 0 0.875 0.125q0.390625 0.109375 0.6875 0.34375q0.296875 0.234375 0.484375 0.59375q0.1875 0.34375 0.28125 0.84375q0.109375 0.484375 0.109375 1.234375l0 3.4375q0 0.625 0.03125 0.921875q0.03125 0.28125 0.125 0.4375q0.09375 0.140625 0.265625 0.25q0.171875 0.109375 0.59375 0.21875l0 0.453125zm1.0058594 -8.25q0.453125 -0.078125 0.734375 -0.25q0.28125 -0.1875 0.4375 -0.46875q0.15625 -0.296875 0.25 -0.71875q0.09375 -0.4375 0.1875 -1.265625l1.296875 0l0 2.25l2.9375 0l0 0.921875l-2.9375 0l0 4.046875q0 0.890625 0.0625 1.421875q0.078125 0.515625 0.28125 0.8125q0.203125 0.28125 0.453125 0.421875q0.265625 0.125 0.65625 0.125q0.375 0 0.6875 -0.140625q0.328125 -0.15625 0.625 -0.453125l0.421875 0.5q-0.65625 0.625 -1.234375 0.90625q-0.578125 0.28125 -1.1875 0.28125q-1.1875 0 -1.765625 -0.6875q-0.5625 -0.703125 -0.5625 -2.1875l0 -5.046875l-1.34375 0l0 -0.46875zm14.125427 6.703125q-0.578125 0.609375 -1.0625 0.953125q-0.484375 0.34375 -1.078125 0.546875q-0.578125 0.1875 -1.28125 0.1875q-1.875 0 -2.828125 -1.125q-0.953125 -1.125 -0.953125 -3.3125q0 -1.359375 0.484375 -2.390625q0.484375 -1.046875 1.375 -1.609375q0.90625 -0.5625 2.09375 -0.5625q0.921875 0 1.5625 0.296875q0.640625 0.28125 1.03125 0.796875q0.390625 0.5 0.59375 1.265625q0.21875 0.765625 0.25 2.015625l-5.734375 0l0 0.15625q0 1.078125 0.234375 1.8125q0.25 0.734375 0.796875 1.15625q0.546875 0.40625 1.4375 0.40625q0.75 0 1.34375 -0.28125q0.59375 -0.28125 1.1875 -0.90625l0.546875 0.59375zm-1.53125 -3.703125q-0.046875 -0.984375 -0.25 -1.609375q-0.1875 -0.625 -0.578125 -0.953125q-0.375 -0.328125 -0.984375 -0.328125q-0.9375 0 -1.5 0.75q-0.5625 0.75 -0.65625 2.140625l3.96875 0zm7.209717 0l1.1875 -1.515625q0.1875 -0.234375 0.296875 -0.46875q0.125 -0.234375 0.125 -0.484375q0 -0.203125 -0.15625 -0.34375q-0.140625 -0.140625 -0.46875 -0.203125l0 -0.4375l2.96875 0l0 0.4375q-0.34375 0.109375 -0.703125 0.40625q-0.359375 0.28125 -0.875 0.921875l-1.890625 2.3125l2.078125 2.796875q0.453125 0.609375 0.796875 0.9375q0.359375 0.3125 0.71875 0.4375l0 0.453125l-3.671875 0l0 -0.453125q0.765625 -0.078125 0.765625 -0.5625q0 -0.1875 -0.0625 -0.359375q-0.0625 -0.171875 -0.234375 -0.40625l-1.328125 -1.828125l-1.40625 1.8125q-0.15625 0.203125 -0.25 0.375q-0.078125 0.171875 -0.078125 0.375q0 0.25 0.171875 0.40625q0.171875 0.15625 0.53125 0.1875l0 0.453125l-3.046875 0l0 -0.453125q0.3125 -0.109375 0.546875 -0.265625q0.25 -0.171875 0.5 -0.421875q0.25 -0.265625 0.65625 -0.765625l1.890625 -2.34375l-1.9375 -2.671875q-0.40625 -0.53125 -0.640625 -0.78125q-0.234375 -0.25 -0.4375 -0.375q-0.203125 -0.125 -0.40625 -0.1875l0 -0.4375l3.578125 0l0 0.4375q-0.71875 0.109375 -0.71875 0.5625q0 0.21875 0.09375 0.4375q0.09375 0.203125 0.296875 0.453125l1.109375 1.5625zm4.6278076 -3.0q0.453125 -0.078125 0.734375 -0.25q0.28125 -0.1875 0.4375 -0.46875q0.15625 -0.296875 0.25 -0.71875q0.09375 -0.4375 0.1875 -1.265625l1.296875 0l0 2.25l2.9375 0l0 0.921875l-2.9375 0l0 4.046875q0 0.890625 0.0625 1.421875q0.078125 0.515625 0.28125 0.8125q0.203125 0.28125 0.453125 0.421875q0.265625 0.125 0.65625 0.125q0.375 0 0.6875 -0.140625q0.328125 -0.15625 0.625 -0.453125l0.421875 0.5q-0.65625 0.625 -1.234375 0.90625q-0.578125 0.28125 -1.1875 0.28125q-1.1875 0 -1.765625 -0.6875q-0.5625 -0.703125 -0.5625 -2.1875l0 -5.046875l-1.34375 0l0 -0.46875zm9.844116 5.9375q0 0.546875 0.046875 0.875q0.0625 0.3125 0.1875 0.5q0.125 0.1875 0.328125 0.296875q0.21875 0.09375 0.65625 0.1875l0 0.453125l-3.984375 0l0 -0.453125q0.5625 -0.140625 0.75 -0.3125q0.1875 -0.1875 0.25 -0.515625q0.0625 -0.328125 0.0625 -1.0l0 -7.875q0 -0.625 -0.046875 -0.90625q-0.046875 -0.296875 -0.15625 -0.453125q-0.09375 -0.15625 -0.28125 -0.25q-0.171875 -0.109375 -0.578125 -0.21875l0 -0.453125l4.515625 0q2.125 0 3.171875 0.828125q1.046875 0.8125 1.046875 2.46875q0 0.953125 -0.328125 1.71875q-0.328125 0.75 -0.9375 1.234375q-0.59375 0.46875 -1.421875 0.6875q-0.8125 0.203125 -1.71875 0.203125q-1.015625 0 -1.5625 -0.03125l0 3.015625zm0 -3.765625l1.046875 0q1.03125 0 1.703125 -0.265625q0.671875 -0.28125 1.015625 -0.90625q0.359375 -0.625 0.359375 -1.65625q0 -0.78125 -0.203125 -1.296875q-0.203125 -0.53125 -0.578125 -0.84375q-0.375 -0.328125 -0.890625 -0.453125q-0.5 -0.140625 -1.09375 -0.140625q-0.90625 0 -1.359375 0.046875l0 5.515625zm12.87561 4.78125l-0.140625 -0.046875q-0.796875 0.8125 -1.5 1.15625q-0.6875 0.328125 -1.46875 0.328125q-0.703125 0 -1.234375 -0.265625q-0.515625 -0.265625 -0.796875 -0.75q-0.28125 -0.484375 -0.28125 -1.125q0 -1.328125 1.3125 -2.046875q1.3125 -0.734375 3.953125 -0.859375l0 -0.59375q0 -0.9375 -0.1875 -1.484375q-0.1875 -0.546875 -0.578125 -0.796875q-0.390625 -0.265625 -1.046875 -0.265625q-0.703125 0 -1.140625 0.375q-0.4375 0.375 -0.65625 1.125l-1.1875 0l0 -1.1875q0.875 -0.453125 1.453125 -0.671875q0.59375 -0.21875 1.171875 -0.328125q0.578125 -0.125 1.1875 -0.125q0.890625 0 1.4375 0.28125q0.546875 0.28125 0.8125 0.875q0.28125 0.59375 0.28125 1.796875l0 3.171875q0 0.671875 0 0.953125q0.015625 0.265625 0.0625 0.515625q0.046875 0.234375 0.140625 0.375q0.09375 0.140625 0.265625 0.234375q0.1875 0.09375 0.578125 0.203125l0 0.453125l-2.484375 0l0.046875 -1.296875zm-0.15625 -2.859375q-1.859375 0.015625 -2.78125 0.5q-0.90625 0.46875 -0.90625 1.421875q0 0.515625 0.203125 0.828125q0.203125 0.296875 0.515625 0.40625q0.328125 0.109375 0.765625 0.109375q0.625 0 1.125 -0.296875q0.5 -0.296875 0.78125 -0.75q0.296875 -0.46875 0.296875 -0.9375l0 -1.28125zm12.859497 4.15625l-3.578125 0l0 -0.453125q0.34375 -0.109375 0.5 -0.1875q0.15625 -0.078125 0.265625 -0.21875q0.109375 -0.15625 0.15625 -0.453125q0.0625 -0.3125 0.0625 -0.921875l0 -2.390625q0 -0.640625 -0.03125 -1.15625q-0.03125 -0.515625 -0.125 -0.84375q-0.078125 -0.34375 -0.203125 -0.53125q-0.125 -0.1875 -0.296875 -0.3125q-0.171875 -0.140625 -0.390625 -0.21875q-0.21875 -0.078125 -0.578125 -0.078125q-0.34375 0 -0.671875 0.140625q-0.3125 0.140625 -0.703125 0.5q-0.375 0.34375 -0.546875 0.6875q-0.171875 0.328125 -0.171875 0.765625l0 3.390625q0 0.78125 0.0625 1.09375q0.078125 0.296875 0.28125 0.46875q0.203125 0.15625 0.671875 0.265625l0 0.453125l-3.5625 0l0 -0.453125q0.34375 -0.109375 0.5 -0.1875q0.15625 -0.078125 0.25 -0.21875q0.109375 -0.15625 0.171875 -0.453125q0.0625 -0.296875 0.0625 -0.9375l0 -3.96875q0 -0.59375 -0.03125 -0.9375q-0.015625 -0.359375 -0.125 -0.5625q-0.109375 -0.21875 -0.328125 -0.328125q-0.21875 -0.109375 -0.640625 -0.171875l0 -0.484375l2.140625 -0.09375l0.546875 0l-0.09375 1.484375l0.125 0.046875q0.671875 -0.6875 1.078125 -0.96875q0.421875 -0.296875 0.84375 -0.453125q0.4375 -0.171875 0.90625 -0.171875q0.484375 0 0.875 0.125q0.390625 0.109375 0.6875 0.34375q0.296875 0.234375 0.484375 0.59375q0.1875 0.34375 0.28125 0.84375q0.109375 0.484375 0.109375 1.234375l0 3.4375q0 0.625 0.03125 0.921875q0.03125 0.28125 0.125 0.4375q0.09375 0.140625 0.265625 0.25q0.171875 0.109375 0.59375 0.21875l0 0.453125zm8.81842 -1.546875q-0.578125 0.609375 -1.0625 0.953125q-0.484375 0.34375 -1.078125 0.546875q-0.578125 0.1875 -1.28125 0.1875q-1.875 0 -2.828125 -1.125q-0.953125 -1.125 -0.953125 -3.3125q0 -1.359375 0.484375 -2.390625q0.484375 -1.046875 1.375 -1.609375q0.90625 -0.5625 2.09375 -0.5625q0.921875 0 1.5625 0.296875q0.640625 0.28125 1.03125 0.796875q0.390625 0.5 0.59375 1.265625q0.21875 0.765625 0.25 2.015625l-5.734375 0l0 0.15625q0 1.078125 0.234375 1.8125q0.25 0.734375 0.796875 1.15625q0.546875 0.40625 1.4375 0.40625q0.75 0 1.34375 -0.28125q0.59375 -0.28125 1.1875 -0.90625l0.546875 0.59375zm-1.53125 -3.703125q-0.046875 -0.984375 -0.25 -1.609375q-0.1875 -0.625 -0.578125 -0.953125q-0.375 -0.328125 -0.984375 -0.328125q-0.9375 0 -1.5 0.75q-0.5625 0.75 -0.65625 2.140625l3.96875 0zm5.787842 2.96875q0 0.78125 0.078125 1.09375q0.078125 0.296875 0.28125 0.46875q0.203125 0.15625 0.671875 0.265625l0 0.453125l-3.625 0l0 -0.453125q0.453125 -0.109375 0.625 -0.234375q0.1875 -0.125 0.265625 -0.296875q0.078125 -0.1875 0.109375 -0.484375q0.03125 -0.3125 0.03125 -0.8125l0 -7.625q0 -0.875 -0.015625 -1.21875q-0.015625 -0.34375 -0.078125 -0.578125q-0.046875 -0.25 -0.15625 -0.375q-0.109375 -0.140625 -0.296875 -0.21875q-0.171875 -0.09375 -0.625 -0.171875l0 -0.46875l2.1875 -0.09375l0.546875 0l0 10.75z" fill-rule="nonzero"/><path fill="#000000" d="m572.69 652.60895q0 0.484375 -0.171875 0.875q-0.15625 0.375 -0.4375 0.671875q-0.28125 0.296875 -0.65625 0.515625q-0.375 0.203125 -0.796875 0.34375q-0.421875 0.125 -0.875 0.1875q-0.453125 0.0625 -0.875 0.0625q-0.921875 0 -1.703125 -0.078125q-0.78125 -0.078125 -1.53125 -0.265625l0 -1.453125q0.796875 0.234375 1.59375 0.359375q0.796875 0.109375 1.578125 0.109375q1.140625 0 1.6875 -0.3125q0.546875 -0.3125 0.546875 -0.890625q0 -0.234375 -0.09375 -0.421875q-0.078125 -0.203125 -0.3125 -0.375q-0.21875 -0.1875 -0.703125 -0.375q-0.484375 -0.203125 -1.3125 -0.4375q-0.609375 -0.1875 -1.140625 -0.421875q-0.515625 -0.234375 -0.90625 -0.546875q-0.375 -0.328125 -0.59375 -0.75q-0.21875 -0.421875 -0.21875 -1.015625q0 -0.375 0.171875 -0.828125q0.171875 -0.453125 0.59375 -0.84375q0.4375 -0.40625 1.171875 -0.65625q0.734375 -0.265625 1.8125 -0.265625q0.546875 0 1.203125 0.0625q0.65625 0.0625 1.359375 0.203125l0 1.40625q-0.75 -0.171875 -1.421875 -0.25q-0.65625 -0.09375 -1.15625 -0.09375q-0.59375 0 -1.0 0.09375q-0.390625 0.078125 -0.65625 0.25q-0.25 0.15625 -0.359375 0.375q-0.109375 0.203125 -0.109375 0.453125q0 0.25 0.09375 0.453125q0.109375 0.1875 0.359375 0.375q0.265625 0.1875 0.71875 0.375q0.46875 0.1875 1.21875 0.40625q0.8125 0.234375 1.359375 0.5q0.5625 0.25 0.90625 0.578125q0.359375 0.3125 0.5 0.71875q0.15625 0.40625 0.15625 0.90625zm6.132263 -9.0625l-2.703125 0l0 -1.3125l4.296875 0l0 11.546875l2.734375 0l0 1.328125l-7.34375 0l0 -1.328125l3.015625 0l0 -10.234375zm15.101074 6.921875q0 1.0625 -0.3125 1.953125q-0.296875 0.890625 -0.859375 1.53125q-0.5625 0.625 -1.375 0.96875q-0.8125 0.34375 -1.84375 0.34375q-0.984375 0 -1.765625 -0.296875q-0.765625 -0.3125 -1.3125 -0.890625q-0.546875 -0.59375 -0.828125 -1.46875q-0.28125 -0.875 -0.28125 -2.015625q0 -1.0625 0.296875 -1.9375q0.296875 -0.890625 0.859375 -1.515625q0.5625 -0.640625 1.375 -0.984375q0.8125 -0.359375 1.84375 -0.359375q0.984375 0 1.765625 0.3125q0.78125 0.296875 1.3125 0.890625q0.546875 0.578125 0.828125 1.453125q0.296875 0.875 0.296875 2.015625zm-1.625 0.0625q0 -0.84375 -0.1875 -1.46875q-0.1875 -0.640625 -0.53125 -1.0625q-0.34375 -0.421875 -0.84375 -0.640625q-0.5 -0.21875 -1.109375 -0.21875q-0.703125 0 -1.21875 0.28125q-0.5 0.28125 -0.828125 0.75q-0.3125 0.453125 -0.46875 1.078125q-0.15625 0.609375 -0.15625 1.28125q0 0.859375 0.1875 1.5q0.1875 0.625 0.53125 1.046875q0.359375 0.421875 0.84375 0.640625q0.5 0.21875 1.109375 0.21875q0.71875 0 1.21875 -0.28125q0.5 -0.28125 0.828125 -0.734375q0.328125 -0.46875 0.46875 -1.078125q0.15625 -0.625 0.15625 -1.3125zm11.288513 4.453125q-0.53125 0.140625 -1.109375 0.1875q-0.578125 0.0625 -1.171875 0.0625q-1.71875 0 -2.5625 -0.78125q-0.84375 -0.78125 -0.84375 -2.390625l0 -4.765625l-2.5625 0l0 -1.328125l2.5625 0l0 -2.515625l1.578125 -0.40625l0 2.921875l4.109375 0l0 1.328125l-4.109375 0l0 4.640625q0 0.984375 0.515625 1.46875q0.53125 0.484375 1.546875 0.484375q0.4375 0 0.953125 -0.0625q0.53125 -0.0625 1.09375 -0.21875l0 1.375z" fill-rule="nonzero"/><path fill="#ffffff" d="m216.7454 131.16618l322.80316 0l0 455.0866l-322.80316 0z" fill-rule="evenodd"/><path stroke="#000000" stroke-width="1.0" stroke-linejoin="round" stroke-linecap="butt" d="m216.7454 131.16618l322.80316 0l0 455.0866l-322.80316 0z" fill-rule="evenodd"/><path fill="#000000" d="m226.85478 158.08618l0 -0.453125q0.5625 -0.140625 0.75 -0.3125q0.1875 -0.1875 0.25 -0.515625q0.0625 -0.328125 0.0625 -1.0l0 -7.875q0 -0.625 -0.046875 -0.90625q-0.046875 -0.296875 -0.15625 -0.453125q-0.09375 -0.15625 -0.28125 -0.25q-0.171875 -0.109375 -0.578125 -0.21875l0 -0.453125l4.96875 0q1.453125 0 2.328125 0.3125q0.890625 0.3125 1.3125 0.921875q0.421875 0.59375 0.421875 1.5625q0 0.78125 -0.3125 1.375q-0.296875 0.578125 -0.796875 0.96875q-0.484375 0.375 -1.25 0.703125l0 0.078125q1.234375 0.375 1.875 1.15625q0.640625 0.78125 0.640625 1.859375q0 1.234375 -0.5625 2.015625q-0.546875 0.78125 -1.546875 1.140625q-0.984375 0.34375 -2.390625 0.34375l-4.6875 0zm4.359375 -6.859375q1.375 0 2.109375 -0.671875q0.734375 -0.671875 0.734375 -1.9375q0 -0.640625 -0.203125 -1.046875q-0.203125 -0.421875 -0.5625 -0.65625q-0.359375 -0.25 -0.859375 -0.359375q-0.484375 -0.109375 -1.0625 -0.109375q-0.34375 0 -0.90625 0.03125q-0.5625 0.015625 -0.84375 0.03125l0 4.71875l1.59375 0zm-1.59375 6.0q0.65625 0.0625 1.484375 0.0625q1.1875 0 1.84375 -0.296875q0.671875 -0.3125 0.96875 -0.890625q0.296875 -0.59375 0.296875 -1.484375q0 -0.875 -0.328125 -1.453125q-0.328125 -0.578125 -1.0 -0.859375q-0.671875 -0.28125 -1.859375 -0.28125l-1.40625 0l0 5.203125zm12.37384 1.0q-1.890625 0 -2.890625 -1.109375q-1.0 -1.125 -1.0 -3.296875q0 -1.515625 0.515625 -2.546875q0.53125 -1.046875 1.4375 -1.546875q0.921875 -0.5 2.078125 -0.5q1.953125 0 2.953125 1.140625q1.015625 1.125 1.015625 3.25q0 1.515625 -0.515625 2.546875q-0.5 1.03125 -1.421875 1.546875q-0.90625 0.515625 -2.171875 0.515625zm-2.171875 -4.609375q0 1.875 0.59375 2.890625q0.609375 1.0 1.71875 1.0q0.609375 0 1.03125 -0.296875q0.4375 -0.296875 0.703125 -0.796875q0.265625 -0.5 0.375 -1.15625q0.125 -0.65625 0.125 -1.375q0 -1.34375 -0.296875 -2.21875q-0.296875 -0.890625 -0.8125 -1.296875q-0.5 -0.421875 -1.15625 -0.421875q-1.09375 0 -1.6875 0.953125q-0.59375 0.953125 -0.59375 2.71875zm14.261398 -5.4375q0 -0.875 -0.015625 -1.21875q-0.015625 -0.34375 -0.078125 -0.578125q-0.046875 -0.25 -0.15625 -0.375q-0.109375 -0.140625 -0.28125 -0.21875q-0.171875 -0.09375 -0.640625 -0.171875l0 -0.46875l2.203125 -0.09375l0.53125 0l0 10.546875q0 0.703125 0.03125 1.015625q0.03125 0.296875 0.125 0.484375q0.09375 0.1875 0.28125 0.296875q0.203125 0.109375 0.6875 0.21875l0 0.46875l-2.15625 0.09375l-0.546875 0l0.109375 -1.5l-0.125 -0.03125q-0.578125 0.609375 -1.0 0.921875q-0.421875 0.296875 -0.90625 0.484375q-0.46875 0.171875 -1.015625 0.171875q-1.5 0 -2.3125 -1.125q-0.8125 -1.140625 -0.8125 -3.28125q0 -1.484375 0.53125 -2.53125q0.53125 -1.046875 1.421875 -1.546875q0.90625 -0.515625 2.015625 -0.515625q0.609375 0 1.09375 0.09375q0.5 0.09375 1.015625 0.3125l0 -1.453125zm0 4.5q0 -0.703125 -0.0625 -1.125q-0.0625 -0.4375 -0.21875 -0.71875q-0.140625 -0.296875 -0.40625 -0.5q-0.25 -0.203125 -0.5625 -0.296875q-0.296875 -0.09375 -0.71875 -0.09375q-1.171875 0 -1.78125 0.9375q-0.609375 0.9375 -0.609375 2.6875q0 1.75 0.5 2.65625q0.5 0.90625 1.515625 0.90625q0.40625 0 0.671875 -0.0625q0.265625 -0.0625 0.515625 -0.21875q0.25 -0.15625 0.515625 -0.40625q0.265625 -0.265625 0.390625 -0.484375q0.125 -0.21875 0.1875 -0.5q0.0625 -0.296875 0.0625 -0.734375l0 -2.046875zm8.051514 6.15625q-0.5 1.125 -0.984375 1.828125q-0.46875 0.703125 -1.03125 1.046875q-0.5625 0.359375 -1.359375 0.359375q-0.5 0 -1.125 -0.109375l0 -1.8125l0.8125 0q0.109375 0.375 0.265625 0.515625q0.171875 0.15625 0.484375 0.15625q0.265625 0 0.484375 -0.109375q0.21875 -0.109375 0.4375 -0.359375q0.234375 -0.25 0.546875 -0.78125q0.328125 -0.53125 0.71875 -1.34375l-2.546875 -6.859375q-0.25 -0.65625 -0.40625 -0.921875q-0.140625 -0.265625 -0.328125 -0.40625q-0.171875 -0.140625 -0.515625 -0.21875l0 -0.4375l3.703125 0l0 0.4375q-0.421875 0.109375 -0.609375 0.203125q-0.171875 0.09375 -0.25 0.25q-0.078125 0.140625 -0.078125 0.375q0 0.25 0.046875 0.515625q0.0625 0.265625 0.203125 0.625l1.609375 4.5625l1.828125 -4.375q0.15625 -0.375 0.234375 -0.671875q0.09375 -0.3125 0.09375 -0.5625q0 -0.40625 -0.21875 -0.59375q-0.203125 -0.203125 -0.734375 -0.328125l0 -0.4375l3.40625 0l0 0.4375q-0.359375 0.078125 -0.546875 0.234375q-0.1875 0.140625 -0.390625 0.46875q-0.1875 0.328125 -0.453125 0.90625l-3.296875 7.40625z" fill-rule="nonzero"/><path fill="#000000" d="m226.7454 571.7112q0 -1.171875 0.3125 -2.078125q0.3125 -0.90625 0.90625 -1.53125q0.59375 -0.625 1.40625 -0.9375q0.828125 -0.328125 1.84375 -0.328125q0.4375 0 0.859375 0.0625q0.421875 0.046875 0.828125 0.15625l0 -3.84375l1.59375 0l0 12.875l-1.421875 0l-0.046875 -1.734375q-0.671875 0.96875 -1.453125 1.4375q-0.765625 0.453125 -1.671875 0.453125q-0.78125 0 -1.375 -0.3125q-0.59375 -0.328125 -1.0 -0.921875q-0.390625 -0.609375 -0.59375 -1.4375q-0.1875 -0.84375 -0.1875 -1.859375zm1.609375 -0.109375q0 1.65625 0.484375 2.484375q0.5 0.8125 1.390625 0.8125q0.59375 0 1.265625 -0.53125q0.671875 -0.546875 1.40625 -1.609375l0 -4.234375q-0.390625 -0.1875 -0.859375 -0.28125q-0.46875 -0.09375 -0.9375 -0.09375q-1.296875 0 -2.03125 0.84375q-0.71875 0.828125 -0.71875 2.609375zm16.835419 -0.578125q0 0.34375 -0.015625 0.578125q0 0.21875 -0.03125 0.421875l-6.421875 0q0 1.40625 0.78125 2.15625q0.796875 0.75 2.265625 0.75q0.40625 0 0.796875 -0.03125q0.40625 -0.03125 0.78125 -0.078125q0.375 -0.0625 0.71875 -0.125q0.34375 -0.078125 0.625 -0.15625l0 1.296875q-0.640625 0.1875 -1.46875 0.296875q-0.8125 0.109375 -1.6875 0.109375q-1.171875 0 -2.015625 -0.3125q-0.84375 -0.3125 -1.390625 -0.921875q-0.546875 -0.609375 -0.8125 -1.484375q-0.25 -0.875 -0.25 -2.0q0 -0.953125 0.28125 -1.8125q0.28125 -0.859375 0.8125 -1.515625q0.53125 -0.65625 1.296875 -1.03125q0.78125 -0.390625 1.765625 -0.390625q0.953125 0 1.6875 0.3125q0.75 0.296875 1.25 0.84375q0.5 0.546875 0.765625 1.34375q0.265625 0.78125 0.265625 1.75zm-1.65625 -0.21875q0.03125 -0.609375 -0.125 -1.109375q-0.140625 -0.515625 -0.453125 -0.875q-0.296875 -0.375 -0.75 -0.578125q-0.453125 -0.203125 -1.0625 -0.203125q-0.515625 0 -0.953125 0.203125q-0.421875 0.203125 -0.734375 0.5625q-0.296875 0.359375 -0.5 0.875q-0.1875 0.515625 -0.234375 1.125l4.8125 0zm12.304169 -6.109375q-1.25 -0.265625 -2.15625 -0.265625q-2.140625 0 -2.140625 2.234375l0 1.609375l4.015625 0l0 1.3125l-4.015625 0l0 6.5l-1.609375 0l0 -6.5l-2.9375 0l0 -1.3125l2.9375 0l0 -1.515625q0 -3.65625 3.8125 -3.65625q0.9375 0 2.09375 0.21875l0 1.375zm-9.578125 2.25l0 0zm17.585403 9.140625l-0.03125 -1.234375q-0.75 0.75 -1.515625 1.078125q-0.765625 0.3125 -1.625 0.3125q-0.78125 0 -1.34375 -0.1875q-0.546875 -0.203125 -0.90625 -0.546875q-0.359375 -0.359375 -0.53125 -0.828125q-0.15625 -0.484375 -0.15625 -1.03125q0 -1.375 1.015625 -2.15625q1.03125 -0.78125 3.03125 -0.78125l1.890625 0l0 -0.796875q0 -0.8125 -0.515625 -1.296875q-0.515625 -0.5 -1.578125 -0.5q-0.78125 0 -1.53125 0.1875q-0.75 0.171875 -1.546875 0.484375l0 -1.4375q0.296875 -0.109375 0.65625 -0.203125q0.375 -0.109375 0.78125 -0.1875q0.40625 -0.078125 0.859375 -0.125q0.453125 -0.0625 0.90625 -0.0625q0.828125 0 1.484375 0.1875q0.671875 0.171875 1.125 0.546875q0.46875 0.375 0.703125 0.953125q0.25 0.5625 0.25 1.328125l0 6.296875l-1.421875 0zm-0.171875 -4.15625l-2.015625 0q-0.578125 0 -1.015625 0.125q-0.421875 0.109375 -0.703125 0.328125q-0.265625 0.21875 -0.40625 0.53125q-0.125 0.296875 -0.125 0.671875q0 0.265625 0.078125 0.515625q0.078125 0.234375 0.265625 0.421875q0.1875 0.1875 0.46875 0.296875q0.296875 0.109375 0.71875 0.109375q0.546875 0 1.25 -0.328125q0.703125 -0.34375 1.484375 -1.0625l0 -1.609375zm11.913544 4.15625l-1.421875 0l-0.0625 -1.46875q-0.40625 0.46875 -0.78125 0.78125q-0.359375 0.3125 -0.734375 0.515625q-0.359375 0.1875 -0.734375 0.25q-0.359375 0.078125 -0.765625 0.078125q-1.421875 0 -2.140625 -0.828125q-0.71875 -0.828125 -0.71875 -2.5l0 -5.96875l1.59375 0l0 5.84375q0 2.109375 1.578125 2.109375q0.296875 0 0.5625 -0.078125q0.28125 -0.09375 0.578125 -0.3125q0.3125 -0.21875 0.65625 -0.578125q0.359375 -0.359375 0.796875 -0.921875l0 -6.0625l1.59375 0l0 9.140625zm6.0229187 -11.5625l-2.703125 0l0 -1.3125l4.296875 0l0 11.546875l2.734375 0l0 1.328125l-7.34375 0l0 -1.328125l3.015625 0l0 -10.234375zm14.507294 11.4375q-0.53125 0.140625 -1.109375 0.1875q-0.578125 0.0625 -1.171875 0.0625q-1.71875 0 -2.5625 -0.78125q-0.84375 -0.78125 -0.84375 -2.390625l0 -4.765625l-2.5625 0l0 -1.328125l2.5625 0l0 -2.515625l1.578125 -0.40625l0 2.921875l4.109375 0l0 1.328125l-4.109375 0l0 4.640625q0 0.984375 0.515625 1.46875q0.53125 0.484375 1.546875 0.484375q0.4375 0 0.953125 -0.0625q0.53125 -0.0625 1.09375 -0.21875l0 1.375zm20.389587 -2.375q0 0.484375 -0.171875 0.875q-0.15625 0.375 -0.4375 0.671875q-0.28125 0.296875 -0.65625 0.515625q-0.375 0.203125 -0.796875 0.34375q-0.421875 0.125 -0.875 0.1875q-0.453125 0.0625 -0.875 0.0625q-0.921875 0 -1.703125 -0.078125q-0.78125 -0.078125 -1.53125 -0.265625l0 -1.453125q0.796875 0.234375 1.59375 0.359375q0.796875 0.109375 1.578125 0.109375q1.140625 0 1.6875 -0.3125q0.546875 -0.3125 0.546875 -0.890625q0 -0.234375 -0.09375 -0.421875q-0.078125 -0.203125 -0.3125 -0.375q-0.21875 -0.1875 -0.703125 -0.375q-0.484375 -0.203125 -1.3125 -0.4375q-0.609375 -0.1875 -1.140625 -0.421875q-0.515625 -0.234375 -0.90625 -0.546875q-0.375 -0.328125 -0.59375 -0.75q-0.21875 -0.421875 -0.21875 -1.015625q0 -0.375 0.171875 -0.828125q0.171875 -0.453125 0.59375 -0.84375q0.4375 -0.40625 1.171875 -0.65625q0.734375 -0.265625 1.8125 -0.265625q0.546875 0 1.203125 0.0625q0.65625 0.0625 1.359375 0.203125l0 1.40625q-0.75 -0.171875 -1.421875 -0.25q-0.65625 -0.09375 -1.15625 -0.09375q-0.59375 0 -1.0 0.09375q-0.390625 0.078125 -0.65625 0.25q-0.25 0.15625 -0.359375 0.375q-0.109375 0.203125 -0.109375 0.453125q0 0.25 0.09375 0.453125q0.109375 0.1875 0.359375 0.375q0.265625 0.1875 0.71875 0.375q0.46875 0.1875 1.21875 0.40625q0.8125 0.234375 1.359375 0.5q0.5625 0.25 0.90625 0.578125q0.359375 0.3125 0.5 0.71875q0.15625 0.40625 0.15625 0.90625zm6.1322937 -9.0625l-2.703125 0l0 -1.3125l4.296875 0l0 11.546875l2.734375 0l0 1.328125l-7.34375 0l0 -1.328125l3.015625 0l0 -10.234375zm15.101044 6.921875q0 1.0625 -0.3125 1.953125q-0.296875 0.890625 -0.859375 1.53125q-0.5625 0.625 -1.375 0.96875q-0.8125 0.34375 -1.84375 0.34375q-0.984375 0 -1.765625 -0.296875q-0.765625 -0.3125 -1.3125 -0.890625q-0.546875 -0.59375 -0.828125 -1.46875q-0.28125 -0.875 -0.28125 -2.015625q0 -1.0625 0.296875 -1.9375q0.296875 -0.890625 0.859375 -1.515625q0.5625 -0.640625 1.375 -0.984375q0.8125 -0.359375 1.84375 -0.359375q0.984375 0 1.765625 0.3125q0.78125 0.296875 1.3125 0.890625q0.546875 0.578125 0.828125 1.453125q0.296875 0.875 0.296875 2.015625zm-1.625 0.0625q0 -0.84375 -0.1875 -1.46875q-0.1875 -0.640625 -0.53125 -1.0625q-0.34375 -0.421875 -0.84375 -0.640625q-0.5 -0.21875 -1.109375 -0.21875q-0.703125 0 -1.21875 0.28125q-0.5 0.28125 -0.828125 0.75q-0.3125 0.453125 -0.46875 1.078125q-0.15625 0.609375 -0.15625 1.28125q0 0.859375 0.1875 1.5q0.1875 0.625 0.53125 1.046875q0.359375 0.421875 0.84375 0.640625q0.5 0.21875 1.109375 0.21875q0.71875 0 1.21875 -0.28125q0.5 -0.28125 0.828125 -0.734375q0.328125 -0.46875 0.46875 -1.078125q0.15625 -0.625 0.15625 -1.3125zm11.288544 4.453125q-0.53125 0.140625 -1.109375 0.1875q-0.578125 0.0625 -1.171875 0.0625q-1.71875 0 -2.5625 -0.78125q-0.84375 -0.78125 -0.84375 -2.390625l0 -4.765625l-2.5625 0l0 -1.328125l2.5625 0l0 -2.515625l1.578125 -0.40625l0 2.921875l4.109375 0l0 1.328125l-4.109375 0l0 4.640625q0 0.984375 0.515625 1.46875q0.53125 0.484375 1.546875 0.484375q0.4375 0 0.953125 -0.0625q0.53125 -0.0625 1.09375 -0.21875l0 1.375z" fill-rule="nonzero"/></g></svg>