<svg width="686" height="669" viewBox="0 0 686 669" fill="none" xmlns="http://www.w3.org/2000/svg">
<path fill-rule="evenodd" clip-rule="evenodd" d="M339.946 496.731C375.21 517.918 420.973 506.506 442.159 471.241C463.345 435.978 451.934 390.215 416.669 369.028C381.406 347.841 335.642 359.253 314.456 394.517C305.049 410.174 302.069 427.902 304.748 444.628C291.456 453.084 247.625 467.917 232.061 465.189L227.263 464.347C222.7 451.817 213.974 440.71 201.652 433.309C173.089 416.147 136.021 425.39 118.859 453.955C101.698 482.519 110.942 519.587 139.506 536.749C168.069 553.91 205.139 544.666 222.299 516.102C228.554 505.691 231.301 494.152 230.884 482.858C248.041 477.338 294.077 464.155 311.913 466.672C318.032 478.724 327.504 489.257 339.946 496.731ZM433.595 466.096C415.25 496.631 375.626 506.513 345.092 488.167C314.557 469.822 304.676 430.198 323.021 399.663C341.366 369.129 380.99 359.248 411.525 377.593C442.059 395.937 451.94 435.562 433.595 466.096Z" fill="#47A1A5"/>
<path fill-rule="evenodd" clip-rule="evenodd" d="M289.944 458.337C304.007 506.33 354.311 533.834 402.303 519.771C450.293 505.709 477.798 455.405 463.736 407.414C449.674 359.423 399.369 331.918 351.377 345.98C330.07 352.224 312.8 365.612 301.415 382.77C282.567 379.375 251.324 364.481 230.04 352.759C214.35 344.117 216.328 338.646 216.328 338.646C222.573 323.688 223.509 304.478 218.596 287.711C207.206 248.839 166.459 226.56 127.586 237.95C88.7132 249.341 66.4344 290.087 77.8259 328.959C89.2151 367.833 129.962 390.112 168.835 378.721C183.002 374.569 194.965 366.519 203.897 356.08C219.429 354.225 275.789 391.431 289.656 408.375C285.196 424.189 284.983 441.407 289.944 458.337ZM399.756 511.082C356.565 523.738 311.29 498.983 298.634 455.792C285.978 412.6 310.731 367.325 353.924 354.669C397.116 342.014 442.389 366.768 455.046 409.959C467.702 453.151 442.948 498.426 399.756 511.082Z" fill="#A3CEF1"/>
<path fill-rule="evenodd" clip-rule="evenodd" d="M304.272 349.952C257.791 389.879 252.477 459.927 292.404 506.408C332.332 552.89 402.381 558.203 448.862 518.276C495.343 478.348 500.658 408.3 460.73 361.819C443.002 341.181 419.337 328.659 394.432 324.609C383.697 305.419 396.69 282.535 396.69 282.535L402.781 270.041C426.563 267.091 440.116 264.768 456.357 250.818C494.006 218.476 498.311 161.737 465.969 124.087C433.628 86.4369 376.889 82.1332 339.238 114.474C301.589 146.815 297.285 203.555 329.626 241.206C341.413 254.926 362.813 260.715 372.603 268.922C381.821 276.649 371.826 300.37 359.908 324.407C340.001 327.41 320.67 335.866 304.272 349.952ZM302.057 498.118C266.708 456.967 271.413 394.951 312.562 359.602C353.715 324.255 415.729 328.958 451.078 370.11C486.427 411.26 481.722 473.275 440.572 508.625C399.42 543.973 337.404 539.27 302.057 498.118Z" fill="#DCEEFE"/>
<path d="M553.292 132.18C549.855 131.8 546.325 131.756 542.748 132.085C514.122 134.716 489.615 160.133 492.246 188.759C493.153 198.63 498.289 212.651 500.144 217.634C504.231 228.618 411.699 377.448 400.939 387.558L398.262 390.098C390.784 386.417 382.24 384.679 373.331 385.498C347.568 387.867 328.611 410.684 330.979 436.447C333.348 462.21 356.131 481.167 381.893 478.799C407.656 476.431 426.648 453.612 424.28 427.85C423.341 417.64 419.192 408.496 412.921 401.327L414.037 397.838C418.435 384.056 501.007 227.471 520.834 232.549C538.172 236.988 540.674 236.832 552.289 235.764C580.914 233.132 601.989 207.779 599.358 179.154C597.056 154.106 577.355 134.842 553.292 132.18ZM381.917 393.613C399.83 395.595 414.479 409.961 416.192 428.607C418.152 449.918 402.482 468.787 381.171 470.747C359.86 472.704 340.991 457 339.033 435.69C337.074 414.38 352.743 395.51 374.053 393.55C376.717 393.305 379.358 393.329 381.917 393.613Z" fill="#07245D"/>
<path fill-rule="evenodd" clip-rule="evenodd" d="M388.018 375.097C419.429 380.883 440.202 411.039 434.416 442.451C428.63 473.862 398.475 494.636 367.062 488.849C335.651 483.063 314.877 452.907 320.664 421.495C323.233 407.55 330.605 395.7 340.76 387.341C337.367 375.588 319.475 344.435 309.015 338.026L305.791 336.05C296.697 340.999 285.911 342.981 274.935 340.959C249.492 336.273 232.665 311.847 237.352 286.403C242.039 260.959 266.465 244.133 291.908 248.82C317.351 253.507 334.179 277.931 329.492 303.376C327.783 312.649 323.454 320.777 317.408 327.138C324.558 339.165 344.581 370.493 356.256 378.19C366.01 374.32 376.936 373.055 388.018 375.097ZM327.074 438.736C323.338 410.864 342.906 385.24 370.778 381.507C398.65 377.771 424.273 397.338 428.008 425.21C431.742 453.083 412.175 478.706 384.303 482.439C356.431 486.175 330.807 466.607 327.074 438.736Z" fill="#FFF732"/>
</svg>
